<svg width="176" height="51" viewBox="0 0 176 51" fill="none" xmlns="http://www.w3.org/2000/svg">
<g clip-path="url(#clip0_84_805)">
<path d="M53.7153 19.6996C54.8823 20.0126 56.0312 20.3902 57.1567 20.8305C58.1309 21.2041 59.0467 21.716 59.8761 22.3505C60.6217 22.9253 61.2322 23.6577 61.6643 24.4957C62.0924 25.3283 62.3064 26.3164 62.3064 27.4599V27.5765C62.3199 28.7638 62.0604 29.9382 61.5481 31.0086C61.0487 32.0405 60.3326 32.9518 59.449 33.6799C58.5149 34.4428 57.4474 35.0244 56.301 35.3952C55.0269 35.8086 53.6946 36.0129 52.3556 36C51.0766 36.0053 49.8024 35.8426 48.5655 35.5161C47.4251 35.2189 46.3229 34.79 45.281 34.2381C44.3476 33.7465 43.4778 33.1421 42.6909 32.4382C42.0124 31.842 41.4405 31.1337 41 30.344L45.5483 27.4585C46.0114 27.9734 46.5047 28.46 47.0257 28.9158C47.5036 29.3342 48.0247 29.7001 48.5801 30.0074C49.1448 30.3163 49.7482 30.5481 50.3741 30.6967C51.0753 30.8583 51.793 30.9366 52.5125 30.9299C53.0152 30.9293 53.5166 30.877 54.0087 30.7739C54.4924 30.6779 54.9581 30.5063 55.3887 30.2653C55.7858 30.0497 56.1325 29.7516 56.4056 29.3909C56.6739 29.0078 56.8101 28.5472 56.7935 28.0793C56.7918 27.7109 56.6984 27.3487 56.5218 27.0256C56.2872 26.6295 55.9689 26.2897 55.5892 26.0303C55.0344 25.6439 54.4337 25.3286 53.801 25.0918C52.8752 24.7388 51.9275 24.4467 50.9639 24.2173C49.6813 23.916 48.4196 23.5309 47.1869 23.0646C46.169 22.6884 45.2128 22.1619 44.3499 21.5023C43.5919 20.9152 42.9799 20.16 42.5616 19.2959C42.1462 18.436 41.9389 17.4203 41.9399 16.2486C41.9213 15.0571 42.1669 13.8763 42.659 12.7917C43.121 11.7844 43.8055 10.8958 44.6607 10.1933C45.5548 9.46902 46.5762 8.91934 47.6721 8.57272C48.8721 8.18782 50.1254 7.99647 51.3852 8.00581C52.6441 7.99121 53.8991 8.1486 55.1156 8.47362C56.1552 8.75538 57.1596 9.15431 58.1096 9.66281C58.9443 10.1121 59.7209 10.6622 60.4223 11.3009C61.0209 11.846 61.5739 12.4397 62.0754 13.0759L57.6041 15.9615C56.4904 14.8928 55.4343 14.1451 54.4358 13.7186C53.4476 13.2919 52.3826 13.0731 51.3067 13.0759C50.7204 13.0626 50.136 13.1483 49.578 13.3295C49.1508 13.4702 48.7497 13.6809 48.3912 13.9532C48.0946 14.1799 47.8475 14.4651 47.6649 14.7912C47.5073 15.0646 47.4209 15.3733 47.4136 15.6889C47.4013 16.1696 47.544 16.6413 47.8203 17.0341C48.1468 17.4583 48.5574 17.8101 49.026 18.0673C49.655 18.4224 50.3197 18.7096 51.0089 18.9243C51.8002 19.1817 52.7023 19.4402 53.7153 19.6996Z" fill="#1D1D1B"/>
<path d="M88.3456 8.35107H92.5438V11.8604L79.9883 30.8525L72.8702 20.1279V35.6443H67.3936V8.35107H71.5919L79.9883 21.03L88.3456 8.35107ZM87.0629 35.6443V21.2981L92.5438 17.509V35.6443H87.0629Z" fill="#1D1D1B"/>
<path d="M117.966 30.8131H105.526L103.466 35.6442H97.6354L108.792 8.34668H114.661L107.464 25.9383H115.977L112.129 16.5792L116.52 12.7974L125.817 35.6486H119.986L117.966 30.8131Z" fill="#1D1D1B"/>
<path d="M145.914 26.6789C145.358 26.9423 144.779 27.1516 144.184 27.3041C143.545 27.4484 142.895 27.5328 142.241 27.5562C141.476 27.5951 140.53 27.6082 139.403 27.5956C138.275 27.583 136.818 27.5766 135.03 27.5766V35.6445H129.545V8.35132H141.867C143.143 8.34191 144.407 8.60107 145.578 9.11206C146.71 9.60372 147.739 10.3048 148.611 11.1786C149.488 12.0637 150.188 13.1096 150.671 14.2594C151.178 15.4484 151.436 16.7291 151.429 18.0223C151.457 19.88 150.921 21.7023 149.894 23.2483C148.915 24.7443 147.535 25.9333 145.914 26.6789ZM135.03 22.1174H141.871C142.421 22.1285 142.968 22.0251 143.477 21.8136C143.985 21.6022 144.444 21.2873 144.826 20.8889C145.628 20.0698 146.03 18.9715 146.03 17.5938C146.03 17.0246 145.918 16.4609 145.7 15.9354C145.486 15.4133 145.184 14.9322 144.807 14.513C144.433 14.0996 143.985 13.7618 143.485 13.5176C142.982 13.2719 142.43 13.1452 141.871 13.1475H135.03V22.1174ZM152.095 35.6445H145.176L141.021 30.5015L145.569 27.5373L152.095 35.6445Z" fill="#1D1D1B"/>
<path d="M167.993 8.35107V35.6443H162.396V13.1079H154.386V8.35107H167.993ZM168.809 8.35107H176V13.1079H171.18L168.809 8.35107Z" fill="#1D1D1B"/>
</g>
<g clip-path="url(#clip1_84_805)">
<path d="M51.7311 43.9663C52.2904 44.5227 52.5696 45.2758 52.5687 46.2257V47.5743C52.5687 48.5991 52.2607 49.4039 51.6447 49.9886C51.0286 50.5734 50.1505 50.8662 49.0103 50.867H47V43.1318H49.2967C50.3612 43.1318 51.1727 43.41 51.7311 43.9663ZM51.7028 46.2037C51.7028 45.4536 51.4947 44.8663 51.0786 44.4417C50.6625 44.0171 50.0537 43.8053 49.2521 43.8061H47.866V50.1927H49.0103C49.8965 50.1927 50.5666 49.9718 51.0205 49.53C51.4744 49.0882 51.6996 48.4424 51.696 47.5924L51.7028 46.2037Z" fill="#1D1D1B"/>
<path d="M60.4044 43.8061V46.546H63.663V47.2319H60.4044V50.1927H63.917V50.867H59.5371V43.1318H63.917V43.8061H60.4044Z" fill="#1D1D1B"/>
<path d="M69.9788 50.0155L70.4409 49.4988C70.6561 49.6579 70.8817 49.8037 71.1163 49.9355C71.3355 50.0521 71.5706 50.139 71.8148 50.1938C72.1389 50.2658 72.4711 50.2992 72.8037 50.2933C73.1904 50.305 73.575 50.2353 73.9304 50.0892C74.2007 49.9792 74.4344 49.8005 74.6059 49.5725C74.7459 49.3834 74.8226 49.1582 74.8261 48.9266V48.7496C74.8358 48.5949 74.8109 48.4401 74.7532 48.2953C74.6954 48.1505 74.6061 48.0191 74.4911 47.9099C74.2668 47.711 73.8778 47.5228 73.3238 47.3454L72.1674 46.9812C71.5054 46.7676 71.0281 46.5092 70.7354 46.2061C70.4462 45.9116 70.2887 45.5209 70.2963 45.1171V44.8665C70.3002 44.5453 70.4067 44.2329 70.6016 43.9713C70.8352 43.6617 71.1529 43.4191 71.5203 43.2699C71.9894 43.0782 72.4964 42.9861 73.0064 42.9999C74.0772 42.9999 74.9635 43.3349 75.6651 44.0049L75.2017 44.4906C74.9044 44.2292 74.5627 44.0182 74.1912 43.8667C73.8169 43.7308 73.4188 43.665 73.0185 43.6729C72.6621 43.6623 72.3073 43.7248 71.9783 43.8563C71.7357 43.9521 71.5244 44.1082 71.3663 44.3085C71.2415 44.4704 71.1726 44.6654 71.169 44.8665V45.099C71.1712 45.231 71.204 45.3608 71.265 45.4792C71.3259 45.5976 71.4136 45.7016 71.5216 45.7837C71.7567 45.9826 72.1399 46.163 72.6713 46.3249L73.7237 46.6453C74.3623 46.8442 74.8514 47.0948 75.1909 47.3971C75.5304 47.6994 75.6998 48.1192 75.6989 48.6566V48.933C75.6991 49.3036 75.5782 49.6649 75.353 49.9665C75.0988 50.3005 74.7527 50.5607 74.3533 50.7183C73.8647 50.912 73.3393 51.0062 72.8105 50.9947C71.6117 50.9982 70.6678 50.6718 69.9788 50.0155Z" fill="#1D1D1B"/>
<path d="M86.3014 48.4798H83.1455L82.3606 50.867H81.4703L84.1168 43.1318H85.307L88.0347 50.867H87.1363L86.3014 48.4798ZM83.3657 47.799H86.0676L84.7045 43.7403L83.3657 47.799Z" fill="#1D1D1B"/>
<path d="M98.9317 50.867L97.0822 47.5859C97.0055 47.5941 96.9283 47.5976 96.8512 47.5962H95.3138V50.867H94.4478V43.1318H96.8282C97.6667 43.1318 98.335 43.3105 98.8331 43.6679C99.0723 43.8332 99.2655 44.0522 99.3955 44.3056C99.5255 44.559 99.5885 44.8391 99.5788 45.1212V45.6301C99.5873 46.0479 99.4327 46.4536 99.1451 46.7682C98.8262 47.1021 98.4096 47.3366 97.9495 47.4412L99.8909 50.867H98.9317ZM98.2143 46.5796C98.374 46.4684 98.5022 46.3209 98.5871 46.1503C98.672 45.9798 98.7111 45.7916 98.7007 45.603V45.1393C98.7084 44.9478 98.6659 44.7575 98.5769 44.5858C98.4879 44.414 98.3554 44.2664 98.1913 44.1562C97.8527 43.9194 97.3943 43.8014 96.8161 43.8023H95.3138V46.918H96.8404C97.4258 46.9206 97.8838 46.8078 98.2143 46.5796Z" fill="#1D1D1B"/>
<path d="M111.146 50.867L109.292 47.5859C109.216 47.5941 109.139 47.5976 109.061 47.5962H107.536V50.867H106.669V43.1318H109.049C109.889 43.1318 110.558 43.3105 111.054 43.6679C111.293 43.8332 111.486 44.0522 111.616 44.3056C111.747 44.559 111.809 44.8391 111.8 45.1212V45.6301C111.806 46.0478 111.649 46.4527 111.359 46.7656C111.04 47.0995 110.624 47.334 110.164 47.4386L112.105 50.8644L111.146 50.867ZM110.423 46.5796C110.584 46.469 110.713 46.3217 110.798 46.1511C110.884 45.9805 110.924 45.792 110.914 45.603V45.1393C110.921 44.9479 110.879 44.7577 110.79 44.586C110.701 44.4143 110.569 44.2666 110.406 44.1562C110.067 43.9194 109.608 43.8014 109.03 43.8023H107.536V46.918H109.061C109.642 46.9206 110.096 46.8078 110.423 46.5796Z" fill="#1D1D1B"/>
<path d="M123.834 43.872C124.358 44.4541 124.621 45.2206 124.621 46.1713V47.8726C124.63 48.424 124.513 48.9706 124.279 49.4744C124.058 49.9398 123.693 50.3293 123.233 50.5905C122.69 50.8596 122.088 51 121.477 51C120.866 51 120.263 50.8596 119.721 50.5905C119.261 50.3293 118.896 49.9398 118.675 49.4744C118.44 48.9708 118.323 48.424 118.333 47.8726V46.1713C118.333 45.2128 118.597 44.4446 119.125 43.8668C119.653 43.2889 120.437 43 121.477 43C122.525 43 123.311 43.2907 123.834 43.872ZM119.767 44.3473C119.39 44.7969 119.201 45.3997 119.2 46.1558V47.8907C119.2 48.6124 119.389 49.198 119.767 49.6475C120.144 50.097 120.714 50.3218 121.477 50.3218C122.24 50.3218 122.81 50.097 123.187 49.6475C123.565 49.198 123.753 48.6124 123.753 47.8907V46.1597C123.753 45.4079 123.566 44.8051 123.193 44.3512C122.819 43.8974 122.247 43.6704 121.477 43.6704C120.715 43.6722 120.145 43.8978 119.767 44.3473Z" fill="#1D1D1B"/>
<path d="M135.967 50.1604V50.867H131.6V43.1318H132.467V50.1604H135.967Z" fill="#1D1D1B"/>
<path d="M146.519 50.1604V50.867H142.151V43.1318H143.017V50.1604H146.519Z" fill="#1D1D1B"/>
<path d="M157.543 43.872C158.067 44.4541 158.329 45.2206 158.329 46.1713V47.8726C158.339 48.424 158.222 48.9708 157.987 49.4744C157.766 49.9398 157.401 50.3293 156.941 50.5905C156.399 50.8596 155.796 51 155.185 51C154.574 51 153.972 50.8596 153.429 50.5905C152.972 50.3295 152.609 49.9415 152.389 49.4783C152.155 48.9744 152.038 48.4277 152.048 47.8765V46.1713C152.048 45.2128 152.312 44.4446 152.839 43.8668C153.365 43.2889 154.149 43 155.191 43C156.235 43 157.019 43.2907 157.543 43.872ZM153.469 44.3473C153.093 44.7969 152.904 45.3997 152.903 46.1558V47.8907C152.903 48.6124 153.092 49.198 153.469 49.6475C153.846 50.097 154.415 50.3218 155.18 50.3218C155.944 50.3218 156.513 50.097 156.89 49.6475C157.267 49.198 157.456 48.6141 157.456 47.8907V46.1597C157.456 45.4079 157.269 44.8051 156.895 44.3512C156.522 43.8974 155.95 43.6704 155.18 43.6704C154.423 43.673 153.852 43.8978 153.469 44.3473Z" fill="#1D1D1B"/>
<path d="M164.291 50.0154L164.754 49.4987C164.969 49.6578 165.195 49.8036 165.43 49.9353C165.649 50.0522 165.884 50.1391 166.128 50.1937C166.452 50.2658 166.784 50.2992 167.117 50.2932C167.504 50.3047 167.888 50.235 168.244 50.0891C168.514 49.9791 168.748 49.8004 168.919 49.5723C169.058 49.3828 169.135 49.1579 169.139 48.9264V48.7495C169.149 48.5947 169.124 48.4397 169.066 48.2949C169.008 48.15 168.918 48.0188 168.803 47.9098C168.58 47.7109 168.191 47.5227 167.636 47.3453L166.481 46.981C165.819 46.7675 165.341 46.5091 165.047 46.206C164.759 45.9109 164.602 45.5206 164.608 45.117V44.8664C164.613 44.5451 164.72 44.2327 164.915 43.9712C165.148 43.6616 165.466 43.419 165.834 43.2697C166.301 43.0788 166.805 42.9867 167.313 42.9998C168.385 42.9998 169.27 43.3348 169.97 44.0048L169.508 44.4905C169.211 44.2291 168.869 44.0181 168.498 43.8665C168.123 43.7307 167.725 43.6649 167.325 43.6728C166.969 43.6622 166.614 43.7247 166.285 43.8562C166.042 43.9516 165.83 44.1078 165.671 44.3083C165.547 44.4704 165.479 44.6654 165.476 44.8664V45.0989C165.478 45.2308 165.511 45.3607 165.572 45.4791C165.632 45.5975 165.72 45.7015 165.828 45.7836C166.063 45.9825 166.446 46.1629 166.978 46.3248L168.029 46.6452C168.669 46.8441 169.159 47.0947 169.497 47.397C169.836 47.6993 170.005 48.1191 170.005 48.6565V48.9329C170.005 49.3036 169.884 49.6649 169.658 49.9663C169.404 50.3007 169.058 50.561 168.658 50.7181C168.17 50.914 167.644 51.01 167.114 50.9998C165.918 50.9998 164.977 50.6716 164.291 50.0154Z" fill="#1D1D1B"/>
</g>
<g clip-path="url(#clip2_84_805)">
<path d="M8.45512 38.1739C8.45042 38.1858 8.44308 38.1964 8.43363 38.2051C8.42419 38.2137 8.41289 38.2202 8.40058 38.2239C8.38827 38.2277 8.37525 38.2287 8.3625 38.2268C8.34975 38.2249 8.33759 38.2202 8.32692 38.2131C8.35 38.1322 8.3923 38.1234 8.45512 38.1739Z" fill="#88C065"/>
<path d="M7.6282 38.5112C7.62348 38.521 7.61665 38.5296 7.6082 38.5365C7.59975 38.5434 7.58987 38.5484 7.57926 38.5512C7.56865 38.554 7.55755 38.5544 7.54674 38.5525C7.53593 38.5507 7.52567 38.5465 7.51666 38.5403C7.53205 38.4556 7.57435 38.4594 7.6282 38.5112Z" fill="#88C065"/>
<path d="M7.32437 38.6111C7.31026 38.6717 7.27949 38.6958 7.22052 38.6541C7.22949 38.5782 7.25257 38.534 7.32437 38.6111Z" fill="#88C065"/>
<path d="M6.4923 38.8879C6.48643 38.9027 6.47733 38.916 6.46566 38.927C6.45399 38.9379 6.44002 38.9462 6.42474 38.9513C6.40946 38.9564 6.39324 38.9581 6.37723 38.9563C6.36121 38.9545 6.34579 38.9493 6.33205 38.941C6.35897 38.8449 6.41794 38.8449 6.4923 38.8879Z" fill="#88C065"/>
<path d="M7.9577 38.3647L7.94488 38.3836L7.92436 38.3748C7.91667 38.3217 7.92949 38.3141 7.9577 38.3647Z" fill="#88C065"/>
<path d="M16.5438 16.3226C16.3502 16.7864 15.9245 17.0581 15.5976 17.4082C14.3797 18.7136 13.4027 20.1884 12.5207 21.7213C11.7745 23.0217 11.1027 24.3752 10.681 25.826C10.4604 26.5842 10.2707 27.3576 10.0669 28.1234C9.72711 29.3986 9.72711 30.699 9.62583 31.9918C9.60147 32.3102 9.45147 32.381 9.18736 32.3823C8.463 32.3823 7.73736 32.3911 7.00788 32.3911C4.87112 32.3911 2.73779 32.3911 0.607878 32.3911C0.00275007 32.3911 -0.0139195 32.362 0.00402927 31.7719C0.0847821 29.7177 0.369475 27.6763 0.85403 25.6768C1.11044 24.5496 1.46557 23.4501 1.81557 22.3469C2.25827 20.9776 2.80689 19.6438 3.4566 18.3572C4.29979 16.6533 5.30333 15.0311 6.45403 13.512C7.50685 12.1446 8.64043 10.8394 9.8489 9.60329C9.87967 9.57169 9.94249 9.56916 9.99121 9.55273C10.0002 9.75241 9.86301 9.94323 10.0784 10.1454C11.2656 11.2891 12.4374 12.4505 13.6117 13.6068C14.2527 14.2387 14.8938 14.8567 15.5194 15.5024C15.8245 15.8184 16.1079 16.1659 16.5438 16.3226Z" fill="#1D1D1B"/>
<path d="M16.4105 16.5234C15.9746 16.3616 15.7284 15.8486 15.4182 15.5288C14.7951 14.8869 14.1669 14.3409 13.5284 13.7128C12.3528 12.5565 10.9823 11.059 9.7951 9.90771C9.58484 9.70551 9.98741 9.5526 9.98741 9.5526C12.6368 6.94994 15.7146 4.80874 19.09 3.21998C19.2097 3.15817 19.3402 3.11915 19.4746 3.10498C19.5092 3.30339 19.6502 3.43229 19.7874 3.56372C20.6041 4.3485 21.4271 5.12697 22.2361 5.91934C23.6259 7.28039 25.0066 8.65155 26.3925 10.0164C26.4989 10.1213 26.6233 10.2097 26.6169 10.3804C22.7707 11.5632 19.2874 13.7533 16.4105 16.5234Z" fill="#7B7A7A"/>
<path d="M26.6105 10.3804C26.6105 10.2098 26.4925 10.1214 26.3861 10.0165C25.0002 8.65162 23.6194 7.28046 22.2297 5.91941C21.4207 5.12704 20.5976 4.34857 19.781 3.56379C19.6438 3.43741 19.5028 3.30346 19.4682 3.10505C20.1374 2.63115 20.931 2.42137 21.6797 2.12439C23.2904 1.5003 24.9542 1.0186 26.6515 0.684982C28.4733 0.313442 30.3105 -0.00375759 32.1874 3.36389e-05C32.5797 3.36389e-05 32.7002 0.116298 32.7002 0.505531C32.6861 3.28577 32.7002 6.05463 32.6925 8.82981C32.6925 9.3353 32.6464 9.37322 32.14 9.41745C30.3182 9.57162 28.5105 9.79657 26.7669 10.3766C26.7152 10.3853 26.6625 10.3865 26.6105 10.3804Z" fill="#C4C4C4"/>
<path d="M2.972 19.4669L10.4374 26.5439C10.4374 26.5439 12.0733 20.5171 16.4105 16.5224L9.72713 9.79297C9.72713 9.79297 5.67456 13.6499 2.972 19.4669Z" fill="#50504F"/>
<path d="M16.4746 33.6788C16.6682 33.2138 17.0951 32.9421 17.4207 32.592C18.64 31.2866 19.6156 29.8118 20.4977 28.2789C21.2438 26.9797 21.9156 25.625 22.3374 24.1742C22.5592 23.416 22.7477 22.6426 22.9515 21.878C23.2912 20.6029 23.2912 19.3025 23.3925 18.0084C23.4169 17.6912 23.5682 17.6192 23.831 17.6179C24.5553 17.6179 25.281 17.6104 26.0105 17.6104C28.1472 17.6104 30.2806 17.6104 32.4105 17.6104C33.0156 17.6104 33.0323 17.6382 33.0143 18.2296C32.9313 20.2849 32.644 22.3271 32.1566 24.3271C31.9002 25.4544 31.5451 26.5539 31.1951 27.6571C30.7524 29.0264 30.2038 30.3602 29.5541 31.6467C28.714 33.3501 27.7134 34.9718 26.5656 36.4907C25.5147 37.8577 24.3823 39.1621 23.1746 40.3969C23.1438 40.4298 23.081 40.431 23.0323 40.4475C23.0246 40.2491 23.1605 40.057 22.9451 39.8548C21.7579 38.7111 20.5874 37.5497 19.4118 36.3934C18.7707 35.7615 18.1297 35.1448 17.5053 34.4978C17.1938 34.1818 16.9118 33.8406 16.4746 33.6788Z" fill="#1D1D1B"/>
<path d="M16.6079 33.479C17.0451 33.6408 17.2899 34.1526 17.6002 34.4723C18.2233 35.1143 18.8528 35.6602 19.4899 36.2883C20.6656 37.4446 22.0361 38.9497 23.2233 40.0934C23.4335 40.2956 23.031 40.4485 23.031 40.4485C20.3815 43.0512 17.3038 45.1924 13.9284 46.7812C13.8086 46.843 13.6782 46.8824 13.5438 46.8974C13.5079 46.6978 13.3669 46.5701 13.2297 46.4387C12.4143 45.6526 11.5899 44.8742 10.781 44.0818C9.39122 42.7208 8.01045 41.3509 6.62455 39.986C6.51943 39.8811 6.39378 39.7914 6.40147 39.6208C10.2489 38.4367 13.7322 36.2466 16.6079 33.479Z" fill="#7B7A7A"/>
<path d="M6.40916 39.6195C6.40146 39.7901 6.5271 39.8799 6.63223 39.9848C8.01813 41.3496 9.3989 42.7195 10.7886 44.0806C11.5976 44.8729 12.422 45.6514 13.2374 46.4374C13.3745 46.5638 13.5156 46.6965 13.5515 46.8962C12.8809 47.3701 12.0886 47.5786 11.3386 47.8756C9.72851 48.5001 8.06508 48.9818 6.36813 49.315C4.54505 49.6941 2.70787 50.005 0.832233 49.9999C0.438643 49.9999 0.319412 49.8849 0.319412 49.4944C0.332233 46.7142 0.319411 43.9453 0.325821 41.1714C0.325821 40.6659 0.373258 40.6267 0.879668 40.5838C2.70018 40.4283 4.50915 40.2046 6.25146 39.6246C6.30351 39.6155 6.35662 39.6138 6.40916 39.6195Z" fill="#C4C4C4"/>
<path d="M30.0463 30.5345L22.5809 23.4575C22.5809 23.4575 20.945 29.4856 16.6079 33.4803L23.2912 40.2084C23.2912 40.2084 27.345 36.3515 30.0463 30.5345Z" fill="#50504F"/>
</g>
<defs>
<clipPath id="clip0_84_805">
<rect width="135" height="28" fill="white" transform="translate(41 8)"/>
</clipPath>
<clipPath id="clip1_84_805">
<rect width="123" height="8" fill="white" transform="translate(47 43)"/>
</clipPath>
<clipPath id="clip2_84_805">
<rect width="33" height="50" fill="white"/>
</clipPath>
</defs>
</svg>
