<svg xmlns="http://www.w3.org/2000/svg" viewBox="0 0 290 227"><defs><style>.cls-1{fill:#fff;}.cls-2{fill:#e0b981;}</style></defs><g id="Capa_2" data-name="Capa 2"><g id="Capa_1-2" data-name="Capa 1"><path class="cls-1" d="M83,0,43,42H158V227l28-32V20S184,0,171,0Z"/><polygon class="cls-2" points="47 54 151 54 151 168 109 213 110 89 13 89 47 54"/><polygon class="cls-1" points="32 97 100 97 100 166 63 195 64 130 0 130 32 97"/><path class="cls-1" d="M183,0H290V31S287,6,263,3H223l1,54h24s18,0,21-26V87s0-22-21-26l-24-1-1,93-29,32V12S193,6,183,0Z"/></g></g></svg>