<svg xmlns="http://www.w3.org/2000/svg" viewBox="0 0 751.18 227"><defs><style>.cls-1{fill:#fff;}.cls-2{fill:#e0b981;}</style></defs><g id="Capa_2" data-name="Capa 2"><g id="Capa_1-2" data-name="Capa 1"><path class="cls-1" d="M83,0,43,42H158V227l28-32V20S184,0,171,0Z"/><polygon class="cls-2" points="47 54 151 54 151 168 109 213 110 89 13 89 47 54"/><polygon class="cls-1" points="32 97 100 97 100 166 63 195 64 130 0 130 32 97"/><path class="cls-1" d="M183,0H290V31S287,6,263,3H223l1,54h24s18,0,21-26V87s0-22-21-26l-24-1-1,93-29,32V12S193,6,183,0Z"/><path class="cls-1" d="M739.58,140.75c-2.26-4.26-4.39-8.59-6.75-12.79-3.91-6.94-6.31-14.73-11.71-20.83-.33-1.2-1.79-1.61-2.11-2.84,1.87-.69,3.41-1.86,5.24-2.4a64.67,64.67,0,0,0,6-4.37c7.06-6.37,8.59-14.52,6.35-23.28-2.52-9.81-9.88-15-19.34-16.53-18.66-3-37.52-1.41-56.3-1.3-.1,0-.2.54-.37,1.07.6.2,1.18.44,1.79.59,9.1,2.29,11.78,4.92,12.08,14.37.68,21.94.83,43.91-.12,65.86-.32,7.4-3.81,10.91-11.21,12.51-1,.22-2.49-.19-2.54,1.6h44.15a2.3,2.3,0,0,0-1.6-1.45c-9-2-11.67-4.61-12.17-13.72-.52-9.45-.28-19-.48-28.43-.06-2.78,1.33-3.2,3.73-3.23,6.33-.08,10.65,3.11,14.07,8A122,122,0,0,1,723,142.44c2.92,8.21,7.14,12.36,16.22,10.56,3.83-.75,8,.37,11.93-1C745.14,150.25,742.2,145.66,739.58,140.75ZM692.52,103.8c-2.5,0-1.9-2.29-1.92-3.82-.05-6.31,0-12.62,0-18.93h0q0-9.47,0-18.93c0-1.64-.3-3.43,2.28-3.49,11.55-.29,19.28.76,24.64,11a24.43,24.43,0,0,1-4.38,28.92C707.23,104.34,699.8,103.83,692.52,103.8Z"/><path class="cls-1" d="M512.43,56.88c-17.78-1.55-35.61-.58-53.42-.7-.66,0-1.33,0-1.58.87.23,1.05,1.23.78,1.92,1.09,8.72,4,10.48,2.9,11.76,14.25a47.81,47.81,0,0,1,.17,5.49q0,23.72,0,47.43a118.22,118.22,0,0,1-.46,13.45c-.88,7.61-4,10.65-11.65,12.07-.92.18-2.11,0-2.07,1.52h44c-12.52-4.88-14-7-14-20.79,0-7.33.21-14.66-.13-22-.19-3.92,1.18-4.74,4.8-4.59,6.82.26,13.66.29,20.47,0,14.71-.7,23.44-9.54,23.26-23.18C535.38,68.39,526.08,58.07,512.43,56.88Zm-11.19,45.54c-14.13,2.15-14.13,2.15-14.12-11.6v-10c0-6.15.18-12.31-.08-18.44-.13-3.16.94-4.1,3.94-3.86,3.8.29,7.72-.2,11.43.5C512.67,61,518.67,70.27,518.29,82.9,518,93.28,511.33,100.89,501.24,102.42Z"/><path class="cls-1" d="M555.05,152.9c1.06-2.15,2.17-1.88,3.1-2.06,6.9-1.34,11-5.17,11.18-12q1-34.18,0-68.39c-.19-6.73-4-10.54-10.58-12.1-1.09-.26-2.37,0-3.23-1,.28-1.89,1.79-1.12,2.72-1.12,23-.06,46,0,68.94-.12,3.23,0,4.51,1,4.44,4.24-.14,6.24,0,12.48,0,18.75-1.56-.28-1.22-1.94-1.53-3.06-2.76-10.17-9.4-16-19.81-16.91-7.28-.62-14.63-.28-22-.44-2.22,0-2.81,1-2.8,3,.06,12,0,24,0,35.95,0,1.29-.16,2.58,1.59,3.2,7.62,2.71,18.55-2.2,20.72-9.49.69-2.33,1-4.77,2.5-7.06V121.4c-2.55-2-2.18-4.79-3-7.18-3.3-10.16-11.36-11.48-19.9-11.08-1.88.09-2,1.43-2,2.84.09,9.81-.6,19.66.82,29.41,1.08,7.46,5.41,12.4,12.87,14.22a40.48,40.48,0,0,0,23.12-1.21c6.69-2.32,11-7.3,13.54-13.8,1.22-3.15,2.13-6.43,4-9.51,0,6.81.15,13.63,0,20.43-.21,7.39-.35,7.4-7.56,7.4l-71.44,0Z"/><path class="cls-1" d="M426.55,56.36V83.57c-2.43-.86-2.12-2.78-2.57-4.26-2.09-6.74-4.74-13.16-10-18.15-6.82-6.46-17.85-6.79-24-.7-6.7,6.66-6.7,17,.07,24.2,4.2,4.5,9.79,6.8,15.2,9.39,7.35,3.51,14.94,6.68,20.38,13.15,7.61,9.06,8.73,19.24,4.51,30s-12.6,16.46-23.92,17.84a43.53,43.53,0,0,1-24.32-4.07c-3.92-1.86-7.58-2.73-11.09,2.64V122.76c2.46,2.79,2.73,5.31,3.51,7.56,2.16,6.21,5,12,9.89,16.53,8.66,8.05,20.49,8,28.2.07,7.1-7.33,6.49-21.4-1.14-29-3.6-3.61-8.06-5.83-12.41-8.25S390,105,385.83,102.3c-12-7.64-15.38-20.19-9.18-33.5a26.49,26.49,0,0,1,31.43-14c2.71.81,5.36,1.82,8,2.84,3.48,1.36,6.95,3.06,9.4-2.34Z"/><path class="cls-1" d="M300.79,56.49h44.27c-.13,1.94-1.45,1.48-2.27,1.67-8.34,1.93-11.74,5-11.89,13.54q-.54,32.91,0,65.85c.13,8.28,4,11.83,12.05,13.33.78.14,1.68,0,2.32,1.51H300.59c.16-.45.2-.95.36-1,11.3-3,13.76-5.75,13.9-17.66.22-19.45.11-38.92,0-58.38,0-5.49-.29-11.06-5.43-14.83C306.78,58.61,303.47,58.67,300.79,56.49Z"/></g></g></svg>