<svg xmlns="http://www.w3.org/2000/svg" viewBox="0 0 163.73 14.47"><defs><style>.cls-1{fill:#f6a015;}.cls-2{fill:#ed510d;}.cls-2,.cls-3{opacity:0.86;}.cls-3{fill:#e73107;}</style></defs><g id="Capa_2" data-name="Capa 2"><g id="Capa_1-2" data-name="Capa 1"><path d="M41.74,10.73l-.11.22q0,.23.66.45a4.79,4.79,0,0,0,1.45.21,7.58,7.58,0,0,0,1.74-.23,8.1,8.1,0,0,0,1.65-.58,6.32,6.32,0,0,0,1.16-.71c.31-.25.46-.47.46-.65s-.27-.45-.81-.65a20.69,20.69,0,0,0-2.35-.66,6,6,0,0,1-2.27-.92,1.62,1.62,0,0,1-.72-1.34,2.39,2.39,0,0,1,.57-1.51,5.5,5.5,0,0,1,1.48-1.28,12.76,12.76,0,0,1,2-1,11.15,11.15,0,0,1,4.14-.9,5.51,5.51,0,0,1,1.29.13c.71.17,1.07.39,1.07.66a1.47,1.47,0,0,1-.07.57,1.27,1.27,0,0,1-.12.2l-.11.09-.1.08a4.08,4.08,0,0,1-2,.37,3,3,0,0,0-.6.06l-.08,0S50,3.35,50,3.3a.36.36,0,0,1,0-.21,1.28,1.28,0,0,1,.32-.53A7.84,7.84,0,0,0,48.17,3a11.58,11.58,0,0,0-2,.9,9.91,9.91,0,0,0-1.38,1c-.36.32-.55.55-.55.68a.48.48,0,0,0,.12.33,4.63,4.63,0,0,0,1.89.76,14.61,14.61,0,0,1,2.15.67,9.79,9.79,0,0,1,.89.48,2.7,2.7,0,0,1,.56.46,1.74,1.74,0,0,1,.49,1.15,2.06,2.06,0,0,1-.31,1.1,3.75,3.75,0,0,1-.94,1,7.67,7.67,0,0,1-1.48.85,10.94,10.94,0,0,1-4.45.83q-1.87,0-2.4-1a1.12,1.12,0,0,1-.13-.53,1,1,0,0,1,.12-.49,1,1,0,0,1,.3-.33,1.16,1.16,0,0,1,.5-.22C41.69,10.63,41.74,10.66,41.74,10.73Z"/><path d="M56.64,6.78a.76.76,0,0,1,.5.22.8.8,0,0,1,.25.66,3.08,3.08,0,0,1-.31,1.17,7.29,7.29,0,0,1-.87,1.46A12.4,12.4,0,0,1,55,11.69a6.84,6.84,0,0,1-1.43,1.07,3,3,0,0,1-1.39.42,1.33,1.33,0,0,1-1-.4,1.5,1.5,0,0,1-.37-1.09,4.2,4.2,0,0,1,.34-1.56A5.89,5.89,0,0,1,52,8.63a7.67,7.67,0,0,1,1.18-1.17,3.94,3.94,0,0,1,2.32-1.07,1,1,0,0,1,.67.22.24.24,0,0,1,.08.13v0Zm-.82,1.08h-.06c-.19,0-.28-.14-.28-.42a4.39,4.39,0,0,0-1.24.68,6,6,0,0,0-1.16,1.15A4.07,4.07,0,0,0,52,11.52c0,.3.11.46.33.46a2.07,2.07,0,0,0,1-.44,5.83,5.83,0,0,0,1.31-1.25,9.33,9.33,0,0,0,1-1.41,2.16,2.16,0,0,0,.32-.81C55.93,7.93,55.89,7.86,55.82,7.86Z"/><path d="M64.62,1a.83.83,0,0,1,.3.69,3.67,3.67,0,0,1-.5,1.42,17.86,17.86,0,0,1-1.21,2c-.47.67-1,1.39-1.6,2.15-.94,1.2-1.84,2.28-2.71,3.23a2.12,2.12,0,0,1-.07.36,2.48,2.48,0,0,0-.06.54.62.62,0,0,0,.25.48.9.9,0,0,0,.61.21,1.39,1.39,0,0,0,.78-.26,3.84,3.84,0,0,0,.73-.57c.54-.56.88-.84,1-.84s.19.2.19.59v.17a.8.8,0,0,1-.11.46,4.47,4.47,0,0,1-1.54,1.24,3.59,3.59,0,0,1-1.61.41,1.43,1.43,0,0,1-1.16-.46,1.89,1.89,0,0,1-.4-1.28,10.3,10.3,0,0,1,.85-3.72,17.66,17.66,0,0,1,1.91-3.64Q62.68.78,63.94.78A1.07,1.07,0,0,1,64.62,1ZM63.57,2.13c0-.08,0-.12-.08-.12s-.68.54-1.49,1.62a24.15,24.15,0,0,0-1.75,2.59,13.87,13.87,0,0,0-1,2.42c.64-.75,1.52-1.94,2.65-3.54A9.07,9.07,0,0,0,63.57,2.13Z"/><path d="M65.46,11.13a1,1,0,0,1,0,.35,3.08,3.08,0,0,1-1.27,1.31,3.18,3.18,0,0,1-1.51.5,1.54,1.54,0,0,1-1.1-.43,1.22,1.22,0,0,1-.46-.88,3.07,3.07,0,0,1,.44-1.29c.3-.57.6-1.1.89-1.58a5.45,5.45,0,0,0,.45-.78s-.06-.12-.17-.24a.51.51,0,0,1-.16-.26q0-.09.33-.45a5.9,5.9,0,0,1,.82-.71,1.46,1.46,0,0,1,.74-.36.76.76,0,0,1,.66.64,33.63,33.63,0,0,1-1.93,3.52,2.08,2.08,0,0,1-.13.21,2.62,2.62,0,0,0-.17.28l-.14.26a1.3,1.3,0,0,0-.17.55c0,.18.13.27.38.27a1.43,1.43,0,0,0,.77-.25,3.28,3.28,0,0,0,.69-.57,4.27,4.27,0,0,1,.87-.82C65.39,10.4,65.46,10.65,65.46,11.13Zm1.32-7.08a1.42,1.42,0,0,1-.43.93,1.25,1.25,0,0,1-.9.47c-.31,0-.46-.17-.46-.49a1.36,1.36,0,0,1,.4-.93,1.25,1.25,0,0,1,.91-.44.5.5,0,0,1,.35.12A.46.46,0,0,1,66.78,4.05Z"/><path d="M69.1,11.71q0,.36.48.36a1.3,1.3,0,0,0,.66-.26,5.9,5.9,0,0,0,.71-.57,4.6,4.6,0,0,1,1-.84c.15,0,.22.21.22.61a.9.9,0,0,1-.39.84,6.52,6.52,0,0,1-1.79,1.27,2.22,2.22,0,0,1-.79.11,1.34,1.34,0,0,1-.85-.37,1.13,1.13,0,0,1-.42-.89,3.08,3.08,0,0,1,.28-1.19,8.67,8.67,0,0,1,.56-1.14c.19-.31.43-.68.71-1.1a3.68,3.68,0,0,0,.45-.78l0,0A4.36,4.36,0,0,0,68.53,8.8c-.7.68-1.28,1.28-1.74,1.79s-1,1.19-1.65,2c-.18.23-.33.34-.44.34a1.24,1.24,0,0,1-.46-.11,2,2,0,0,1-.35-.15.19.19,0,0,1-.06-.15.64.64,0,0,1,.05-.24l.11-.23c0-.07.09-.16.18-.29l.48-.83c.24-.41.61-1,1.11-1.87l.89-1.51a5.69,5.69,0,0,1,.5-.78,1.46,1.46,0,0,1,1.23-.46c.13,0,.2.08.2.24A3.66,3.66,0,0,1,67.87,8l-.34.51a7.74,7.74,0,0,1,2.37-2,2.11,2.11,0,0,1,.85-.21.84.84,0,0,1,.6.21.58.58,0,0,1,.22.45,1.31,1.31,0,0,1-.17.59,6.67,6.67,0,0,1-.34.61l-.46.69-.31.45-.13.19a1.75,1.75,0,0,1-.15.24l-.16.25-.18.31-.17.3a3.1,3.1,0,0,0-.16.3c0,.09-.09.19-.13.29A1.42,1.42,0,0,0,69.1,11.71Z"/><path d="M78.62,10.38l0,.17a.14.14,0,0,0,0,.09.18.18,0,0,0,.11,0s.07,0,.1-.07c.81-1.07,1.47-2,2-2.82L82,6l.59-.92c.39-.59.77-1.12,1.16-1.6A15.07,15.07,0,0,1,80.33,4a7.36,7.36,0,0,1-1.79-.16,1.57,1.57,0,0,1-.71-.36.59.59,0,0,1-.17-.4c0-.14,0-.28,0-.41A.84.84,0,0,1,78.16,2a1.7,1.7,0,0,1,.76-.26q.3,0,.3.09a.41.41,0,0,1-.13.24c-.09.1-.14.17-.14.2s.63.26,1.88.26a22,22,0,0,0,4.31-.49A4.1,4.1,0,0,1,87.54.94a1,1,0,0,1,.9.38.94.94,0,0,1,.14.46.6.6,0,0,1-.26.45,2.16,2.16,0,0,1-.71.39,10.46,10.46,0,0,1-1.91.47c-.31.39-.75,1-1.31,1.84L83.23,6.61q-.32.45-1,1.56c-.46.75-.86,1.39-1.19,1.94s-.7,1.08-1.07,1.61c-.78,1.09-1.47,1.64-2.07,1.64a1,1,0,0,1-.66-.21.76.76,0,0,1-.27-.66,2.05,2.05,0,0,1,.5-1.14,6.2,6.2,0,0,1,.74-.88.83.83,0,0,1,.32-.2S78.62,10.31,78.62,10.38Z"/><path d="M89.73,6.78a.76.76,0,0,1,.5.22.8.8,0,0,1,.25.66,3.08,3.08,0,0,1-.31,1.17,7.79,7.79,0,0,1-.87,1.46,12.4,12.4,0,0,1-1.21,1.4,6.84,6.84,0,0,1-1.43,1.07,3,3,0,0,1-1.39.42,1.33,1.33,0,0,1-1-.4,1.5,1.5,0,0,1-.37-1.09,4.2,4.2,0,0,1,.34-1.56,5.89,5.89,0,0,1,.89-1.5A7.67,7.67,0,0,1,86.3,7.46a3.94,3.94,0,0,1,2.32-1.07,1,1,0,0,1,.67.22.24.24,0,0,1,.08.13v0Zm-.82,1.08h-.06c-.19,0-.28-.14-.28-.42a4.39,4.39,0,0,0-1.24.68,6,6,0,0,0-1.16,1.15,4.07,4.07,0,0,0-1.06,2.25c0,.3.11.46.33.46a2.07,2.07,0,0,0,1-.44,5.83,5.83,0,0,0,1.31-1.25,9.33,9.33,0,0,0,1-1.41A2.16,2.16,0,0,0,89,8.07C89,7.93,89,7.86,88.91,7.86Z"/><path d="M97.17,10.41c.11,0,.17.08.19.24a3.64,3.64,0,0,1,0,.48.73.73,0,0,1,0,.35,4.07,4.07,0,0,1-1,1.11,2.45,2.45,0,0,1-1.5.65A1.43,1.43,0,0,1,94,13a1.07,1.07,0,0,1-.37-.92A2.66,2.66,0,0,1,94,10.77c-1.34,1.68-2.39,2.52-3.16,2.52a.94.94,0,0,1-.73-.32,1,1,0,0,1-.28-.67,2.66,2.66,0,0,1,.1-.72c.06-.24.13-.46.2-.66s.19-.43.33-.72.25-.5.32-.63.18-.32.34-.58l.6-1.06a9.43,9.43,0,0,1,.63-1,.65.65,0,0,1,.48-.32.55.55,0,0,1,.42.19.57.57,0,0,1,.17.31,5.5,5.5,0,0,1-.54,1.1,14.84,14.84,0,0,0-1.61,3.38q0,.12.09.12c.26,0,.91-.56,1.94-1.68a17.52,17.52,0,0,0,1.8-2.16,6.06,6.06,0,0,1,.47-.8,1.75,1.75,0,0,1,.34-.4,1.76,1.76,0,0,1,.9-.24h.14s.07.06.12.14a.58.58,0,0,1,.06.2A9,9,0,0,1,96.46,8c-.38.66-.6,1-.64,1.11a8.32,8.32,0,0,0-1,2.58c0,.23.09.34.26.34a2.2,2.2,0,0,0,1.14-.75l.48-.51a3.8,3.8,0,0,1,.3-.3A.19.19,0,0,1,97.17,10.41Z"/><path d="M99.53,8.54c1.27-1.45,2.36-2.18,3.26-2.18a.81.81,0,0,1,.55.2.69.69,0,0,1,.21.52,2.58,2.58,0,0,1-.45,1.06c-.3.49-.58.91-.83,1.25a.6.6,0,0,1-.46.26.47.47,0,0,1-.4-.19.72.72,0,0,1-.14-.44,2.06,2.06,0,0,1,.6-1.26l0,0a4.38,4.38,0,0,0-1.32,1.06c-.71.68-1.31,1.3-1.8,1.84s-1,1.21-1.61,2c-.17.23-.31.34-.43.34a1.24,1.24,0,0,1-.46-.11,2,2,0,0,1-.35-.15.22.22,0,0,1-.06-.17.73.73,0,0,1,.06-.26c.05-.1.13-.24.24-.43s.3-.48.53-.89.6-1,1.1-1.86.8-1.34.89-1.51a6.62,6.62,0,0,1,.51-.78,1.46,1.46,0,0,1,1.23-.46c.13,0,.19.08.19.24A3.58,3.58,0,0,1,99.87,8Z"/><path d="M103.57,11.34v.13A.52.52,0,0,0,104,12a4.81,4.81,0,0,0,1.72-.29c.5-.2.75-.39.75-.59s-.09-.17-.27-.24-.49-.15-.92-.25l-.93-.23-.47-.16a2.57,2.57,0,0,1-.35-.2.93.93,0,0,1-.38-.8,1.71,1.71,0,0,1,.4-1.06,3.65,3.65,0,0,1,1-.89,8.57,8.57,0,0,1,1.28-.66A6.17,6.17,0,0,1,108.07,6q.9,0,1.11.39a.75.75,0,0,1,.06.31v0a1.12,1.12,0,0,1-.18.68,1.59,1.59,0,0,1-.57.44,1.53,1.53,0,0,1-.63.19.85.85,0,0,1-.29,0,.28.28,0,0,1-.1-.09.23.23,0,0,0-.1-.07s-.06-.06-.06-.13a.26.26,0,0,1,.08-.19.65.65,0,0,0,.11-.22,3.67,3.67,0,0,0-1.12.25,4.91,4.91,0,0,0-1,.5,5.6,5.6,0,0,0-.69.52c-.19.17-.28.29-.28.37s.12.14.37.19a12.79,12.79,0,0,1,2.21.58,1.77,1.77,0,0,1,.73.55,1.09,1.09,0,0,1,.2.56,1.47,1.47,0,0,1-.41,1,3.4,3.4,0,0,1-1,.76,5.43,5.43,0,0,1-2.28.64,2.22,2.22,0,0,1-1.34-.3.9.9,0,0,1-.37-.7,1.42,1.42,0,0,1,.21-.75.62.62,0,0,1,.53-.35Q103.57,11.16,103.57,11.34Z"/><path d="M121.47,7.68c.13,0,.2.1.2.31a7.21,7.21,0,0,1-.14,1.07,3.5,3.5,0,0,1-1.17,1.46,7.78,7.78,0,0,1-2.81,1.63,6.16,6.16,0,0,1-1.81.29,2.24,2.24,0,0,1-1.61-.74,2.46,2.46,0,0,1-.72-1.76,6,6,0,0,1,.41-2.11,9.3,9.3,0,0,1,1.1-2.09,13.1,13.1,0,0,1,1.64-1.91,13.73,13.73,0,0,1,2-1.59,10,10,0,0,1,2.14-1.07,6.43,6.43,0,0,1,2.12-.4,1.84,1.84,0,0,1,1.36.58,1.08,1.08,0,0,1,.29.77A2.37,2.37,0,0,1,124,3.3a7,7,0,0,1-1.08,1.29,7.72,7.72,0,0,1-1.28,1,2.23,2.23,0,0,1-1.06.41,1,1,0,0,1-.68-.25.64.64,0,0,1-.28-.44,1.2,1.2,0,0,1,.08-.43c.06-.16.13-.24.22-.24a.12.12,0,0,0,0,.09c0,.06.1.09.28.09a2,2,0,0,0,.94-.49,7.83,7.83,0,0,0,1.19-1.11,1.8,1.8,0,0,0,.53-.93c0-.14-.09-.21-.28-.21a5.05,5.05,0,0,0-2.11.71,12.39,12.39,0,0,0-2.57,1.83,11.75,11.75,0,0,0-2.13,2.66,5.57,5.57,0,0,0-.9,2.76,1.21,1.21,0,0,0,.27.82,1.08,1.08,0,0,0,.84.31,3.48,3.48,0,0,0,1.33-.33,8.33,8.33,0,0,0,1.47-.79c.46-.32.89-.64,1.31-1a10.69,10.69,0,0,0,1-.87,1.5,1.5,0,0,0,.38-.45A.06.06,0,0,1,121.47,7.68Z"/><path d="M127.53,6.22a.82.82,0,0,1,.5.22.84.84,0,0,1,.26.67A3.13,3.13,0,0,1,128,8.28a7.29,7.29,0,0,1-.87,1.46,12.4,12.4,0,0,1-1.21,1.4,6.59,6.59,0,0,1-1.43,1.07,2.93,2.93,0,0,1-1.39.42,1.32,1.32,0,0,1-1-.4,1.52,1.52,0,0,1-.38-1.09A4.4,4.4,0,0,1,122,9.58a6,6,0,0,1,.89-1.5,8.68,8.68,0,0,1,1.18-1.17,3.94,3.94,0,0,1,2.32-1.07,1,1,0,0,1,.67.22.17.17,0,0,1,.08.13v0Zm-.82,1.08h0c-.19,0-.29-.13-.29-.41a4.53,4.53,0,0,0-1.24.68A6.31,6.31,0,0,0,124,8.72a4.12,4.12,0,0,0-1,2.25q0,.45.33.45a2.11,2.11,0,0,0,1-.43,6,6,0,0,0,1.3-1.25,10.33,10.33,0,0,0,1-1.41,2.36,2.36,0,0,0,.32-.81C126.83,7.38,126.79,7.3,126.71,7.3Z"/><path d="M131.85,7.22c-1.76.11-2.79.19-3.08.25h0c-.11,0-.16-.07-.16-.21a1.1,1.1,0,0,1,.25-.57,1.11,1.11,0,0,1,.62-.48,2.73,2.73,0,0,1,.83-.12,24.32,24.32,0,0,0,3.15-.23l.23-.08a1,1,0,0,1,.38-.08.39.39,0,0,1,.3.18.71.71,0,0,1,.14.45.61.61,0,0,1-.14.42,1.24,1.24,0,0,1-.53.25,18.9,18.9,0,0,0-4.41,4.26c.17,0,.63-.15,1.36-.28a10.59,10.59,0,0,0,3.12-.81.24.24,0,0,1,.18-.08.43.43,0,0,1,.23.07c.08.05.12.29.12.7a.94.94,0,0,1-.17.45,1,1,0,0,1-.38.36,22.42,22.42,0,0,1-2.35.46c-1.89.33-2.92.5-3.08.5h-.3l-.11,0-.1,0-.07,0,0,0,0,0-.1-.1q-.09-.08-.09-.42a1.53,1.53,0,0,1,0-.41,7.76,7.76,0,0,1,1-1.45A10,10,0,0,1,129.7,9c.32-.27.71-.6,1.19-1S131.68,7.36,131.85,7.22Z"/><path d="M140.94,9.86c.1,0,.17.08.19.23a3.91,3.91,0,0,1,0,.49.92.92,0,0,1,0,.35,4.24,4.24,0,0,1-1,1.11,2.45,2.45,0,0,1-1.51.65,1.42,1.42,0,0,1-.81-.26,1.06,1.06,0,0,1-.37-.92,2.56,2.56,0,0,1,.35-1.29c-1.34,1.68-2.4,2.52-3.16,2.52a.9.9,0,0,1-.73-.33,1,1,0,0,1-.28-.67,3.07,3.07,0,0,1,.09-.71q.1-.37.21-.66a5.87,5.87,0,0,1,.33-.72c.14-.29.25-.5.32-.63l.33-.59c.16-.26.36-.61.61-1a7.31,7.31,0,0,1,.63-1,.65.65,0,0,1,.48-.32.5.5,0,0,1,.41.19.54.54,0,0,1,.18.31,5.8,5.8,0,0,1-.54,1.1A14.63,14.63,0,0,0,135,11.05q0,.12.09.12c.26,0,.91-.56,1.94-1.68a15.3,15.3,0,0,0,1.79-2.17,6.25,6.25,0,0,1,.48-.8,1.87,1.87,0,0,1,.34-.39,1.71,1.71,0,0,1,.9-.25h.14s.07.05.11.14a.43.43,0,0,1,.07.2,10.4,10.4,0,0,1-.65,1.21l-.63,1.11a8.32,8.32,0,0,0-1,2.58c0,.23.09.34.26.34a2.18,2.18,0,0,0,1.13-.75l.49-.51.29-.31A.23.23,0,0,1,140.94,9.86Z"/><path d="M140.64,12.45h-.54a.54.54,0,0,1-.18-.1l-.14-.1a.17.17,0,0,1-.05-.12,1,1,0,0,1,.07-.3,33.66,33.66,0,0,1,3.06-5.56,1,1,0,0,1,.52-.35,2.19,2.19,0,0,1,.7-.12c.14,0,.2.11.2.32a.69.69,0,0,1-.06.24,3.14,3.14,0,0,1-.33.49c-.17.23-.37.49-.61.78l-.41.5a10.77,10.77,0,0,1,2-1.71,3,3,0,0,1,1.3-.57.79.79,0,0,1,.61.23.71.71,0,0,1,.22.5A1.83,1.83,0,0,1,147,7a1.43,1.43,0,0,1-.13.36l-.17.33a2.24,2.24,0,0,1-.23.35l-.22.29c0,.06-.13.16-.25.31l-.21.25c.15-.15.36-.37.63-.67l.69-.75c.18-.2.42-.42.7-.68a6.27,6.27,0,0,1,.79-.61,3.25,3.25,0,0,1,1.77-.55.73.73,0,0,1,.52.2.6.6,0,0,1,.21.46,3.93,3.93,0,0,1-.65,1.3c-.44.68-.88,1.37-1.31,2.06a3.93,3.93,0,0,0-.66,1.3c0,.25.05.4.14.44a.58.58,0,0,0,.33.06,1.38,1.38,0,0,0,.55-.25,4.75,4.75,0,0,0,.63-.49c.3-.27.57-.53.83-.79a.24.24,0,0,1,.18-.07c.1,0,.16.08.18.23a3.91,3.91,0,0,1,0,.49,1,1,0,0,1,0,.35,4.32,4.32,0,0,1-1,1.11,2.48,2.48,0,0,1-1.54.66h-.13a1.67,1.67,0,0,1-1.16-.46,1.35,1.35,0,0,1-.32-.89,3.09,3.09,0,0,1,.35-1.26,10,10,0,0,1,.78-1.34L149,7.66a3.66,3.66,0,0,0,.36-.53s0,0-.07,0-.54.27-1.12.81a31.13,31.13,0,0,0-2.56,2.68c-.19.23-.64.8-1.35,1.73a.44.44,0,0,1-.38.16,1.56,1.56,0,0,1-.55-.1c-.19-.07-.29-.16-.29-.26s.43-.82,1.29-2.28a16,16,0,0,0,1.29-2.39c0-.14-.08-.2-.24-.2s-.48.24-1,.71a18.06,18.06,0,0,0-3.18,3.9,2.47,2.47,0,0,1-.29.36C140.78,12.37,140.69,12.45,140.64,12.45Z"/><path d="M156.33,6.34a1.27,1.27,0,0,1-.43.94,1.41,1.41,0,0,1-1,.4c-.12,0-.2,0-.24-.08a.48.48,0,0,1,0-.22,1.18,1.18,0,0,1,0-.27,3.29,3.29,0,0,0-.65.3,6.29,6.29,0,0,0-.87.6c-.35.26-.52.46-.52.59s.06.07.19.07a2.1,2.1,0,0,0,.58-.14,2.12,2.12,0,0,1,.56-.13.5.5,0,0,1,.21,0,.65.65,0,0,1,.22.24.59.59,0,0,1,.13.3c0,.08-.07.17-.21.29a1.42,1.42,0,0,1-.48.27l-.36.14q-1.71,1-1.71,1.32,0,.63,1.08.63a2.5,2.5,0,0,0,1.38-.44,9.52,9.52,0,0,0,1.07-.76l.6-.47a.43.43,0,0,1,.19-.09c.14,0,.21.16.21.47a2.6,2.6,0,0,1-.05.62,1,1,0,0,1-.33.37,5.33,5.33,0,0,1-3.28,1.41,3.29,3.29,0,0,1-1.33-.22,1.35,1.35,0,0,1-.9-1.27c0-.75.51-1.31,1.54-1.7a.72.72,0,0,1-.39-.35,1.9,1.9,0,0,1-.09-.69,1.63,1.63,0,0,1,.44-1A3.7,3.7,0,0,1,153,6.61a5.56,5.56,0,0,1,2.55-.77,1.34,1.34,0,0,1,.54.13A.4.4,0,0,1,156.33,6.34Z"/><path d="M163.43.46a.82.82,0,0,1,.3.69,3.62,3.62,0,0,1-.51,1.42,16.35,16.35,0,0,1-1.2,2c-.47.67-1,1.39-1.6,2.15-.94,1.2-1.85,2.27-2.71,3.23,0,.07,0,.19-.07.36a2.46,2.46,0,0,0-.06.53.64.64,0,0,0,.25.49.9.9,0,0,0,.61.21,1.44,1.44,0,0,0,.78-.26,3.84,3.84,0,0,0,.73-.57c.54-.56.87-.84,1-.84s.2.2.2.59v.17a.72.72,0,0,1-.12.46,4.46,4.46,0,0,1-1.53,1.24,3.62,3.62,0,0,1-1.61.41,1.43,1.43,0,0,1-1.16-.46,1.89,1.89,0,0,1-.4-1.28,10.21,10.21,0,0,1,.85-3.72,16.94,16.94,0,0,1,1.91-3.64Q161.48.23,162.75.23A1.09,1.09,0,0,1,163.43.46Zm-1.05,1.12c0-.08,0-.13-.08-.13s-.69.55-1.49,1.63a24.15,24.15,0,0,0-1.75,2.59,13.87,13.87,0,0,0-1,2.42q1-1.14,2.65-3.54A9.17,9.17,0,0,0,162.38,1.58Z"/><circle class="cls-1" cx="7.24" cy="7.24" r="7.24"/><circle class="cls-2" cx="16.91" cy="7.24" r="7.24"/><circle class="cls-3" cx="26.86" cy="7.24" r="7.24"/></g></g></svg>