<svg xmlns="http://www.w3.org/2000/svg" viewBox="0 0 68.58 53.11"><defs><style>.cls-1{fill:#fff;}.cls-2{fill:#f6a015;}.cls-3{fill:#ed510d;}.cls-3,.cls-4{opacity:0.86;}.cls-4{fill:#e73107;}</style></defs><g id="Capa_2" data-name="Capa 2"><g id="Capa_1-2" data-name="Capa 1"><path class="cls-1" d="M1.07,33.34l-.1.22q0,.24.66.45a4.46,4.46,0,0,0,1.45.22A7.11,7.11,0,0,0,4.82,34a8.58,8.58,0,0,0,1.65-.57,6.12,6.12,0,0,0,1.16-.72c.31-.24.46-.46.46-.64s-.27-.45-.81-.65a22.91,22.91,0,0,0-2.36-.67,6,6,0,0,1-2.26-.91,1.64,1.64,0,0,1-.72-1.34A2.39,2.39,0,0,1,2.51,27,5.5,5.5,0,0,1,4,25.7a12.76,12.76,0,0,1,2-1,11.15,11.15,0,0,1,4.14-.9,5.63,5.63,0,0,1,1.29.13c.71.16,1.07.39,1.07.66a1.42,1.42,0,0,1-.08.57.86.86,0,0,1-.11.19.4.4,0,0,1-.12.1l-.1.07a4,4,0,0,1-2,.38,2.61,2.61,0,0,0-.6.05.16.16,0,0,1-.09,0s0,0-.08-.07a.3.3,0,0,1,0-.21,1.16,1.16,0,0,1,.31-.53,7.55,7.55,0,0,0-2.11.45,10.43,10.43,0,0,0-1.95.9,9.91,9.91,0,0,0-1.38,1c-.37.32-.55.55-.55.68a.48.48,0,0,0,.12.33,4.63,4.63,0,0,0,1.89.76A14.78,14.78,0,0,1,7.77,30a7.12,7.12,0,0,1,.89.47,2.77,2.77,0,0,1,.56.47A1.76,1.76,0,0,1,9.72,32a2.12,2.12,0,0,1-.31,1.09,3.81,3.81,0,0,1-.95,1A6.94,6.94,0,0,1,7,35a10.89,10.89,0,0,1-4.44.83c-1.26,0-2.06-.33-2.4-1A1.07,1.07,0,0,1,0,34.29a.92.92,0,0,1,.13-.49.81.81,0,0,1,.3-.33,1.12,1.12,0,0,1,.5-.22C1,33.25,1.07,33.28,1.07,33.34Z"/><path class="cls-1" d="M16,29.39a.8.8,0,0,1,.5.22.84.84,0,0,1,.26.67,3.13,3.13,0,0,1-.32,1.17,7.29,7.29,0,0,1-.87,1.46,12.4,12.4,0,0,1-1.21,1.4,6.59,6.59,0,0,1-1.43,1.07,2.9,2.9,0,0,1-1.39.41,1.32,1.32,0,0,1-1-.39,1.52,1.52,0,0,1-.38-1.09,4.23,4.23,0,0,1,.35-1.56,5.54,5.54,0,0,1,.88-1.5,8.68,8.68,0,0,1,1.18-1.17A4,4,0,0,1,14.86,29a1,1,0,0,1,.68.22c.05.05.08.09.08.13v.05Zm-.82,1.08H15.1c-.19,0-.29-.13-.29-.41a4.53,4.53,0,0,0-1.24.68,6.31,6.31,0,0,0-1.16,1.15,4.12,4.12,0,0,0-1.05,2.25q0,.45.33.45a2.11,2.11,0,0,0,1-.43A6,6,0,0,0,14,32.91a10.33,10.33,0,0,0,1-1.41,2.36,2.36,0,0,0,.32-.81C15.27,30.54,15.23,30.47,15.15,30.47Z"/><path class="cls-1" d="M24,23.63a.81.81,0,0,1,.3.69,3.62,3.62,0,0,1-.51,1.42,16.47,16.47,0,0,1-1.21,2c-.47.67-1,1.39-1.59,2.14-.95,1.21-1.85,2.28-2.71,3.24,0,.07,0,.19-.07.36a2.46,2.46,0,0,0-.06.53.66.66,0,0,0,.24.49.93.93,0,0,0,.62.21,1.44,1.44,0,0,0,.78-.26,3.48,3.48,0,0,0,.72-.57c.55-.56.88-.84,1-.84s.2.2.2.59v.16a.74.74,0,0,1-.12.47A4.46,4.46,0,0,1,20,35.48a3.66,3.66,0,0,1-1.62.41,1.46,1.46,0,0,1-1.16-.46,2,2,0,0,1-.39-1.28,10.38,10.38,0,0,1,.84-3.72,17.4,17.4,0,0,1,1.92-3.64Q22,23.4,23.27,23.4A1.12,1.12,0,0,1,24,23.63Zm-1.05,1.12c0-.09,0-.13-.08-.13s-.69.55-1.49,1.63a25.29,25.29,0,0,0-1.75,2.58,14.34,14.34,0,0,0-1,2.43q1-1.14,2.65-3.54A9.17,9.17,0,0,0,22.91,24.75Z"/><path class="cls-1" d="M24.8,33.75a1,1,0,0,1-.05.35,3,3,0,0,1-1.27,1.31,3.15,3.15,0,0,1-1.5.5,1.61,1.61,0,0,1-1.11-.43,1.22,1.22,0,0,1-.46-.88,3.2,3.2,0,0,1,.45-1.3c.29-.56.59-1.09.89-1.57a4.77,4.77,0,0,0,.44-.78s-.05-.12-.16-.24-.17-.21-.17-.27.11-.2.34-.44a6,6,0,0,1,.82-.72,1.51,1.51,0,0,1,.74-.35.59.59,0,0,1,.45.23.65.65,0,0,1,.21.41,36.17,36.17,0,0,1-1.93,3.52l-.14.21c-.07.11-.13.2-.17.28l-.14.26a1.27,1.27,0,0,0-.16.54c0,.19.12.28.37.28A1.48,1.48,0,0,0,23,34.4a3.83,3.83,0,0,0,.69-.56,3.94,3.94,0,0,1,.87-.82C24.73,33,24.8,33.26,24.8,33.75Zm1.31-7.08a1.37,1.37,0,0,1-.43.93,1.2,1.2,0,0,1-.89.46.42.42,0,0,1-.47-.48,1.35,1.35,0,0,1,.41-.93,1.18,1.18,0,0,1,.9-.44.48.48,0,0,1,.35.12A.42.42,0,0,1,26.11,26.67Z"/><path class="cls-1" d="M28.43,34.33c0,.23.17.35.49.35a1.22,1.22,0,0,0,.65-.26,4.5,4.5,0,0,0,.71-.56,4.23,4.23,0,0,1,1-.84c.14,0,.21.2.21.61a.89.89,0,0,1-.38.83,6.39,6.39,0,0,1-1.79,1.28,2.22,2.22,0,0,1-.79.11,1.31,1.31,0,0,1-.85-.37,1.13,1.13,0,0,1-.42-.89,3.24,3.24,0,0,1,.27-1.19,8.63,8.63,0,0,1,.57-1.14c.19-.31.42-.68.71-1.1a3,3,0,0,0,.44-.78v0a4.3,4.3,0,0,0-1.33,1.05c-.71.69-1.29,1.29-1.75,1.8s-1,1.18-1.65,2c-.17.24-.32.35-.43.35a1.2,1.2,0,0,1-.46-.11,1.64,1.64,0,0,1-.36-.16.17.17,0,0,1-.06-.14.6.6,0,0,1,.06-.24,1.08,1.08,0,0,1,.11-.24c0-.06.09-.15.17-.28l.48-.83c.24-.42.61-1,1.11-1.88s.8-1.33.89-1.5a6.62,6.62,0,0,1,.51-.78A1.47,1.47,0,0,1,27.72,29c.13,0,.19.09.19.25a3.5,3.5,0,0,1-.7,1.43l-.34.51a7.81,7.81,0,0,1,2.37-2,2.22,2.22,0,0,1,.84-.2.85.85,0,0,1,.6.2.62.62,0,0,1,.23.45,1.45,1.45,0,0,1-.17.6,6.62,6.62,0,0,1-.35.61c-.11.18-.27.41-.46.69l-.31.45a1.87,1.87,0,0,1-.12.19l-.15.23-.16.26L29,33l-.17.3-.16.31c0,.09-.08.18-.12.29A1.25,1.25,0,0,0,28.43,34.33Z"/><path class="cls-1" d="M38,33l0,.17a.12.12,0,0,0,0,.09.21.21,0,0,0,.11,0,.15.15,0,0,0,.11-.07c.8-1.07,1.47-2,2-2.83l1.16-1.79c.25-.39.45-.69.59-.92.39-.59.78-1.13,1.16-1.6a14.87,14.87,0,0,1-3.43.55,7.39,7.39,0,0,1-1.78-.15,1.57,1.57,0,0,1-.72-.36.64.64,0,0,1-.17-.41c0-.13,0-.27,0-.4a.82.82,0,0,1,.49-.66,1.55,1.55,0,0,1,.76-.26q.3,0,.3.09a.44.44,0,0,1-.14.24c-.09.1-.13.16-.13.2s.62.26,1.87.26a21.87,21.87,0,0,0,4.31-.49,4.1,4.1,0,0,1,2.41-1.14.94.94,0,0,1,.89.38.84.84,0,0,1,.15.46.61.61,0,0,1-.27.45,2.24,2.24,0,0,1-.71.39A9.56,9.56,0,0,1,45,25.7c-.31.4-.74,1-1.31,1.84s-.95,1.4-1.16,1.69-.53.81-1,1.56-.85,1.39-1.19,1.93-.69,1.08-1.07,1.61c-.77,1.1-1.46,1.64-2.07,1.64a1,1,0,0,1-.65-.2.75.75,0,0,1-.28-.66A2.05,2.05,0,0,1,36.82,34a5.07,5.07,0,0,1,.74-.88c.16-.13.26-.2.32-.2S38,32.93,38,33Z"/><path class="cls-1" d="M49.06,29.39a.82.82,0,0,1,.5.22.84.84,0,0,1,.26.67,3.13,3.13,0,0,1-.32,1.17,7.29,7.29,0,0,1-.87,1.46,12.4,12.4,0,0,1-1.21,1.4A6.59,6.59,0,0,1,46,35.38a2.9,2.9,0,0,1-1.39.41,1.32,1.32,0,0,1-1-.39,1.52,1.52,0,0,1-.38-1.09,4.23,4.23,0,0,1,.35-1.56,5.54,5.54,0,0,1,.88-1.5,8.68,8.68,0,0,1,1.18-1.17A4,4,0,0,1,48,29a1,1,0,0,1,.67.22c.06.05.09.09.09.13v.05Zm-.82,1.08h-.05c-.19,0-.29-.13-.29-.41a4.53,4.53,0,0,0-1.24.68,6.31,6.31,0,0,0-1.16,1.15,4.12,4.12,0,0,0-1,2.25q0,.45.33.45a2.11,2.11,0,0,0,1-.43,6,6,0,0,0,1.3-1.25,10.33,10.33,0,0,0,1-1.41,2.36,2.36,0,0,0,.32-.81C48.36,30.54,48.32,30.47,48.24,30.47Z"/><path class="cls-1" d="M56.51,33c.1,0,.16.08.19.23a3.91,3.91,0,0,1,0,.49.92.92,0,0,1,0,.35,4.24,4.24,0,0,1-1,1.11,2.45,2.45,0,0,1-1.51.65,1.42,1.42,0,0,1-.81-.26,1.06,1.06,0,0,1-.37-.92,2.65,2.65,0,0,1,.34-1.29q-2,2.52-3.15,2.52a.94.94,0,0,1-.74-.33,1,1,0,0,1-.27-.67,3,3,0,0,1,.09-.71q.1-.37.21-.66a6.52,6.52,0,0,1,.32-.72l.32-.63.34-.59L51,30.55a8.68,8.68,0,0,1,.62-1,.69.69,0,0,1,.49-.32.51.51,0,0,1,.41.19.54.54,0,0,1,.18.31,5.8,5.8,0,0,1-.54,1.1,14.16,14.16,0,0,0-1.61,3.38q0,.12.09.12c.26,0,.9-.56,1.94-1.68a15.3,15.3,0,0,0,1.79-2.17,7.74,7.74,0,0,1,.47-.8,1.83,1.83,0,0,1,.35-.39,1.71,1.71,0,0,1,.9-.25h.14s.07.05.11.14a.59.59,0,0,1,.07.2,10.4,10.4,0,0,1-.65,1.21l-.64,1.11a8.48,8.48,0,0,0-.95,2.58c0,.23.08.34.26.34a2.18,2.18,0,0,0,1.13-.75l.49-.51a2.43,2.43,0,0,1,.29-.31A.21.21,0,0,1,56.51,33Z"/><path class="cls-1" d="M58.86,31.15C60.14,29.71,61.23,29,62.12,29a.79.79,0,0,1,.55.2.67.67,0,0,1,.22.51,2.48,2.48,0,0,1-.45,1.06A13.71,13.71,0,0,1,61.6,32a.57.57,0,0,1-.45.26.48.48,0,0,1-.4-.19.66.66,0,0,1-.14-.44,2.06,2.06,0,0,1,.6-1.26l0,0a4.42,4.42,0,0,0-1.33,1.05c-.7.69-1.3,1.31-1.8,1.85s-1,1.2-1.61,2c-.16.24-.31.35-.42.35a1.28,1.28,0,0,1-.47-.11,1.18,1.18,0,0,1-.34-.16.17.17,0,0,1-.07-.16.78.78,0,0,1,.07-.26,3,3,0,0,1,.24-.43c.12-.18.29-.48.53-.89s.6-1,1.1-1.87l.89-1.5a5.69,5.69,0,0,1,.5-.78A1.48,1.48,0,0,1,59.71,29c.13,0,.2.09.2.25a3.58,3.58,0,0,1-.71,1.43Z"/><path class="cls-1" d="M62.9,34v.13a.44.44,0,0,0,.16.35.41.41,0,0,0,.28.15,4.9,4.9,0,0,0,1.73-.29c.5-.2.75-.39.75-.59s-.1-.17-.28-.24a7.65,7.65,0,0,0-.91-.25L63.68,33a4.63,4.63,0,0,1-.46-.16,1.62,1.62,0,0,1-.35-.21.88.88,0,0,1-.38-.79,1.76,1.76,0,0,1,.39-1.06,3.58,3.58,0,0,1,1-.9,9.45,9.45,0,0,1,1.27-.65,6,6,0,0,1,2.26-.56q.9,0,1.11.39a.62.62,0,0,1,.07.31v0a1.14,1.14,0,0,1-.18.68,1.62,1.62,0,0,1-.58.43,1.55,1.55,0,0,1-.62.2.92.92,0,0,1-.3,0,.43.43,0,0,1-.1-.09.27.27,0,0,0-.1-.08s-.06-.05-.06-.12a.37.37,0,0,1,.08-.2.63.63,0,0,0,.12-.21,3.39,3.39,0,0,0-1.12.25,5,5,0,0,0-1,.49,6.45,6.45,0,0,0-.69.53c-.18.17-.27.29-.27.37s.12.14.37.19a12.15,12.15,0,0,1,2.21.58,1.59,1.59,0,0,1,.72.55,1,1,0,0,1,.21.56,1.44,1.44,0,0,1-.42,1,3.17,3.17,0,0,1-1,.76,5.43,5.43,0,0,1-2.27.64,2.18,2.18,0,0,1-1.34-.3.87.87,0,0,1-.37-.7,1.42,1.42,0,0,1,.21-.75.6.6,0,0,1,.53-.35C62.79,33.78,62.9,33.84,62.9,34Z"/><path class="cls-1" d="M19.21,48.05c.13,0,.2.1.2.31a7.46,7.46,0,0,1-.14,1.08A3.57,3.57,0,0,1,18.1,50.9a7.9,7.9,0,0,1-2.81,1.62,6.16,6.16,0,0,1-1.81.29,2.21,2.21,0,0,1-1.6-.74,2.42,2.42,0,0,1-.73-1.76,6.07,6.07,0,0,1,.41-2.11,9.52,9.52,0,0,1,1.1-2.09,13.87,13.87,0,0,1,3.61-3.5,10,10,0,0,1,2.14-1.07,6.54,6.54,0,0,1,2.13-.4,1.82,1.82,0,0,1,1.35.58,1.06,1.06,0,0,1,.29.78,2.34,2.34,0,0,1-.45,1.17A6.67,6.67,0,0,1,20.65,45a8.22,8.22,0,0,1-1.28,1,2.13,2.13,0,0,1-1.06.41,1,1,0,0,1-.68-.25.64.64,0,0,1-.28-.44,1.46,1.46,0,0,1,.08-.43c.06-.16.13-.23.22-.23a.11.11,0,0,0,0,.08c0,.06.09.09.28.09a2,2,0,0,0,.93-.49A7.39,7.39,0,0,0,20,43.58a1.72,1.72,0,0,0,.53-.93c0-.14-.09-.21-.28-.21a5.05,5.05,0,0,0-2.11.71A12.84,12.84,0,0,0,15.6,45a11.22,11.22,0,0,0-2.13,2.66,5.49,5.49,0,0,0-.91,2.76,1.21,1.21,0,0,0,.27.82,1,1,0,0,0,.84.31A3.48,3.48,0,0,0,15,51.2a8,8,0,0,0,1.47-.79c.46-.32.9-.64,1.31-1a12.6,12.6,0,0,0,1-.86c.25-.25.38-.4.38-.46S19.17,48.05,19.21,48.05Z"/><path class="cls-1" d="M25.27,46.6a.78.78,0,0,1,.5.21.84.84,0,0,1,.26.67,3.13,3.13,0,0,1-.32,1.17,7.29,7.29,0,0,1-.87,1.46,11.46,11.46,0,0,1-1.21,1.4,6.59,6.59,0,0,1-1.43,1.07,2.93,2.93,0,0,1-1.39.42,1.29,1.29,0,0,1-1-.4,1.5,1.5,0,0,1-.38-1.09A4.23,4.23,0,0,1,19.78,50a5.46,5.46,0,0,1,.89-1.5,8.09,8.09,0,0,1,1.17-1.17,4,4,0,0,1,2.32-1.07,1,1,0,0,1,.68.22.24.24,0,0,1,.08.13v0Zm-.82,1.07H24.4c-.19,0-.29-.13-.29-.41a4.53,4.53,0,0,0-1.24.68,6.31,6.31,0,0,0-1.16,1.15,4.12,4.12,0,0,0-1.05,2.25c0,.3.11.46.33.46a2.16,2.16,0,0,0,1-.44,5.8,5.8,0,0,0,1.3-1.25,10.33,10.33,0,0,0,1-1.41,2.36,2.36,0,0,0,.32-.81C24.57,47.75,24.53,47.67,24.45,47.67Z"/><path class="cls-1" d="M29.59,47.59c-1.76.11-2.78.2-3.08.26h0c-.11,0-.16-.08-.16-.22a1.1,1.1,0,0,1,.25-.57,1.19,1.19,0,0,1,.62-.48,2.73,2.73,0,0,1,.83-.12,24.32,24.32,0,0,0,3.15-.23l.23-.08a1.18,1.18,0,0,1,.38-.08.38.38,0,0,1,.3.18.67.67,0,0,1,.14.45.57.57,0,0,1-.14.42,1.24,1.24,0,0,1-.53.25,18.9,18.9,0,0,0-4.41,4.26c.18-.05.63-.15,1.36-.28a10.48,10.48,0,0,0,3.12-.81.25.25,0,0,1,.19-.08.43.43,0,0,1,.22.07c.08.06.12.29.12.71a.85.85,0,0,1-.17.44.93.93,0,0,1-.38.36,22.42,22.42,0,0,1-2.35.46c-1.89.33-2.91.5-3.07.5h-.31l-.11,0-.09,0-.07,0-.06,0-.05,0-.1-.09a.66.66,0,0,1-.09-.43,1.08,1.08,0,0,1,0-.41,7.69,7.69,0,0,1,1-1.45,11,11,0,0,1,1.09-1.13l1.19-1Z"/><path class="cls-1" d="M38.68,50.23c.11,0,.17.08.19.24a3.64,3.64,0,0,1,0,.48.73.73,0,0,1,0,.35,4.07,4.07,0,0,1-1,1.11,2.45,2.45,0,0,1-1.51.65,1.42,1.42,0,0,1-.81-.26,1.06,1.06,0,0,1-.37-.92,2.66,2.66,0,0,1,.35-1.29c-1.34,1.68-2.39,2.52-3.16,2.52a.94.94,0,0,1-.73-.32,1,1,0,0,1-.28-.67,2.66,2.66,0,0,1,.1-.72c.06-.24.13-.46.2-.66s.18-.43.33-.72.25-.5.32-.63l.33-.58.61-1.06a8,8,0,0,1,.63-1,.65.65,0,0,1,.48-.32.52.52,0,0,1,.41.19.54.54,0,0,1,.18.31,5.5,5.5,0,0,1-.54,1.1,14.84,14.84,0,0,0-1.61,3.38q0,.12.09.12c.26,0,.91-.56,1.94-1.68a15.3,15.3,0,0,0,1.79-2.17,6.54,6.54,0,0,1,.48-.79,1.75,1.75,0,0,1,.34-.4,1.87,1.87,0,0,1,.9-.25h.14s.07.05.11.14a.47.47,0,0,1,.07.2A9,9,0,0,1,38,47.81c-.39.66-.6,1-.64,1.11a8.32,8.32,0,0,0-1,2.58c0,.23.09.34.26.34a2.24,2.24,0,0,0,1.14-.75l.48-.51.29-.31A.23.23,0,0,1,38.68,50.23Z"/><path class="cls-1" d="M38.38,52.83l-.39,0h-.15a.62.62,0,0,1-.17-.1l-.15-.1a.14.14,0,0,1-.05-.12,1.46,1.46,0,0,1,.07-.3,33.66,33.66,0,0,1,3.06-5.56,1,1,0,0,1,.52-.35,2.22,2.22,0,0,1,.7-.11c.14,0,.21.1.21.31a.75.75,0,0,1-.07.24,2.52,2.52,0,0,1-.32.49c-.18.23-.38.49-.62.78l-.41.5a11.53,11.53,0,0,1,2-1.71,3,3,0,0,1,1.3-.57.8.8,0,0,1,.62.24.7.7,0,0,1,.21.49,1.83,1.83,0,0,1,0,.44,1.12,1.12,0,0,1-.13.36c-.06.13-.12.24-.17.33a2.24,2.24,0,0,1-.23.35l-.22.29a3.68,3.68,0,0,1-.25.31l-.21.25c.15-.15.36-.37.63-.67l.69-.75c.19-.2.42-.42.7-.67a6.21,6.21,0,0,1,.79-.62A3.34,3.34,0,0,1,48.09,46a.73.73,0,0,1,.51.2.61.61,0,0,1,.22.46,3.84,3.84,0,0,1-.66,1.3c-.44.68-.88,1.37-1.31,2.06a3.93,3.93,0,0,0-.66,1.3c0,.25.05.4.14.45a.72.72,0,0,0,.34,0,1.36,1.36,0,0,0,.54-.25,4.75,4.75,0,0,0,.63-.49c.3-.27.58-.53.83-.79a.24.24,0,0,1,.18-.07q.15,0,.18.24a2.45,2.45,0,0,1,0,.48.88.88,0,0,1,0,.35,4.15,4.15,0,0,1-1,1.11,2.48,2.48,0,0,1-1.54.66h-.13a1.69,1.69,0,0,1-1.16-.46,1.35,1.35,0,0,1-.32-.89,3.09,3.09,0,0,1,.35-1.26A10,10,0,0,1,46,49.11L46.73,48a3.12,3.12,0,0,0,.36-.53s0,0-.07,0-.54.27-1.12.81A31.13,31.13,0,0,0,43.34,51c-.19.23-.64.8-1.35,1.73a.44.44,0,0,1-.38.16,1.56,1.56,0,0,1-.55-.1c-.19-.07-.28-.15-.28-.26s.43-.82,1.29-2.28a16,16,0,0,0,1.29-2.39c0-.13-.08-.2-.24-.2s-.49.24-1,.71A17.86,17.86,0,0,0,39,52.23c-.05.07-.14.19-.28.35S38.43,52.83,38.38,52.83Z"/><path class="cls-1" d="M54.07,46.71a1.24,1.24,0,0,1-.43.94,1.42,1.42,0,0,1-1,.41.25.25,0,0,1-.23-.09.38.38,0,0,1-.06-.22,1.24,1.24,0,0,1,0-.27,4,4,0,0,0-.65.3,10.12,10.12,0,0,0-.87.6c-.35.27-.52.46-.52.59s.06.07.19.07a2.15,2.15,0,0,0,.59-.14,2,2,0,0,1,.55-.13.78.78,0,0,1,.21,0,.66.66,0,0,1,.23.24.65.65,0,0,1,.12.3c0,.08-.07.17-.21.29a1.42,1.42,0,0,1-.48.27,2.6,2.6,0,0,0-.36.15c-1.14.63-1.71,1.07-1.71,1.31q0,.63,1.08.63A2.55,2.55,0,0,0,52,51.54,10.34,10.34,0,0,0,53,50.79l.6-.48a.43.43,0,0,1,.19-.09c.14,0,.22.16.22.47a2,2,0,0,1-.06.62,1,1,0,0,1-.33.37,5.31,5.31,0,0,1-3.28,1.41A3.24,3.24,0,0,1,49,52.87a1.35,1.35,0,0,1-.91-1.27c0-.75.51-1.31,1.55-1.69a.72.72,0,0,1-.4-.36,1.9,1.9,0,0,1-.09-.69,1.63,1.63,0,0,1,.44-1A3.44,3.44,0,0,1,50.71,47a5.43,5.43,0,0,1,2.54-.78,1.42,1.42,0,0,1,.55.13A.41.41,0,0,1,54.07,46.71Z"/><path class="cls-1" d="M61.17,40.83a.82.82,0,0,1,.3.69,3.67,3.67,0,0,1-.5,1.42,17.86,17.86,0,0,1-1.21,2c-.47.67-1,1.39-1.6,2.15-.94,1.2-1.84,2.28-2.71,3.23a2.12,2.12,0,0,1-.07.36,2.48,2.48,0,0,0-.06.54.64.64,0,0,0,.25.48.9.9,0,0,0,.61.21,1.44,1.44,0,0,0,.78-.26,3.84,3.84,0,0,0,.73-.57c.54-.56.88-.84,1-.84s.19.2.19.59V51a.8.8,0,0,1-.11.46,4.47,4.47,0,0,1-1.54,1.24,3.59,3.59,0,0,1-1.61.41,1.43,1.43,0,0,1-1.16-.46,1.89,1.89,0,0,1-.4-1.28,10.21,10.21,0,0,1,.85-3.72A16.94,16.94,0,0,1,56.83,44c1.6-2.26,2.81-3.39,3.66-3.39A1.07,1.07,0,0,1,61.17,40.83ZM60.12,42c0-.08,0-.12-.08-.12s-.68.54-1.49,1.62A24.15,24.15,0,0,0,56.8,46a13.87,13.87,0,0,0-1,2.42q1-1.14,2.65-3.54A9.07,9.07,0,0,0,60.12,42Z"/><circle class="cls-2" cx="25.29" cy="7.24" r="7.24"/><circle class="cls-3" cx="34.97" cy="7.24" r="7.24"/><circle class="cls-4" cx="44.92" cy="7.24" r="7.24"/></g></g></svg>