<svg xmlns="http://www.w3.org/2000/svg" viewBox="0 0 164.24 14.47"><defs><style>.cls-1{fill:#f6a015;}.cls-2{fill:#ed510d;}.cls-2,.cls-3{opacity:0.86;}.cls-3{fill:#e73107;}.cls-4{fill:#fff;}</style></defs><g id="Capa_2" data-name="Capa 2"><g id="Capa_1-2" data-name="Capa 1"><circle class="cls-1" cx="7.24" cy="7.24" r="7.24"/><circle class="cls-2" cx="16.91" cy="7.24" r="7.24"/><circle class="cls-3" cx="26.86" cy="7.24" r="7.24"/><path class="cls-4" d="M42.88,10.91l-.1.22q0,.24.66.45a4.46,4.46,0,0,0,1.45.22,7.11,7.11,0,0,0,1.74-.24A8.58,8.58,0,0,0,48.28,11a5.81,5.81,0,0,0,1.16-.72c.31-.25.46-.46.46-.65s-.27-.45-.81-.65a21,21,0,0,0-2.36-.66,6,6,0,0,1-2.26-.91,1.64,1.64,0,0,1-.72-1.34,2.39,2.39,0,0,1,.57-1.51A5.53,5.53,0,0,1,45.8,3.26a13.67,13.67,0,0,1,2-1,11.18,11.18,0,0,1,4.14-.91,6.18,6.18,0,0,1,1.29.13c.71.17,1.07.39,1.07.67a1.63,1.63,0,0,1-.07.56.92.92,0,0,1-.12.2L54,3l-.11.07a4,4,0,0,1-2,.38,2.61,2.61,0,0,0-.6,0,.18.18,0,0,1-.09,0s-.05,0-.08-.07a.3.3,0,0,1,0-.21,1.13,1.13,0,0,1,.32-.54,7.65,7.65,0,0,0-2.12.46,10.44,10.44,0,0,0-2,.89,9.91,9.91,0,0,0-1.38,1c-.37.32-.55.55-.55.68a.48.48,0,0,0,.12.33,4.78,4.78,0,0,0,1.89.76,14.73,14.73,0,0,1,2.14.66,7.67,7.67,0,0,1,.89.48,2.55,2.55,0,0,1,.57.47,1.72,1.72,0,0,1,.49,1.15,2,2,0,0,1-.31,1.09,3.75,3.75,0,0,1-.94,1,7,7,0,0,1-1.48.85,10.81,10.81,0,0,1-4.45.84c-1.25,0-2.05-.33-2.4-1a1.1,1.1,0,0,1-.14-.52.9.9,0,0,1,.13-.49.91.91,0,0,1,.3-.34,1.19,1.19,0,0,1,.5-.21C42.83,10.82,42.88,10.85,42.88,10.91Z"/><path class="cls-4" d="M57.79,7a.79.79,0,0,1,.49.22.84.84,0,0,1,.26.67A3.13,3.13,0,0,1,58.22,9a8,8,0,0,1-.86,1.46,12.38,12.38,0,0,1-1.22,1.39A6.12,6.12,0,0,1,54.71,13a3,3,0,0,1-1.39.41,1.33,1.33,0,0,1-1-.39,1.53,1.53,0,0,1-.38-1.1,4.22,4.22,0,0,1,.35-1.55,5.57,5.57,0,0,1,.89-1.5,8.7,8.7,0,0,1,1.17-1.18,4,4,0,0,1,2.32-1.06.93.93,0,0,1,.68.22s.08.09.08.13V7ZM57,8h-.06c-.19,0-.29-.14-.29-.41a4.41,4.41,0,0,0-1.24.68,6,6,0,0,0-1.16,1.15,4.12,4.12,0,0,0-1,2.25q0,.45.33.45a2,2,0,0,0,1-.44,5.74,5.74,0,0,0,1.3-1.24,10.66,10.66,0,0,0,1-1.41,2.36,2.36,0,0,0,.32-.81C57.08,8.11,57,8,57,8Z"/><path class="cls-4" d="M65.77,1.2a.8.8,0,0,1,.3.68,3.6,3.6,0,0,1-.51,1.43,18,18,0,0,1-1.2,2c-.47.67-1,1.39-1.6,2.14-.94,1.2-1.85,2.28-2.71,3.24,0,.06,0,.18-.07.36a2.39,2.39,0,0,0-.06.53.61.61,0,0,0,.25.48.86.86,0,0,0,.61.22,1.53,1.53,0,0,0,.78-.26,3.88,3.88,0,0,0,.73-.58c.54-.55.87-.83,1-.83s.2.2.2.59v.16a.76.76,0,0,1-.12.47,4.46,4.46,0,0,1-1.53,1.24,3.76,3.76,0,0,1-1.61.41A1.44,1.44,0,0,1,59.07,13a1.86,1.86,0,0,1-.4-1.27A10.21,10.21,0,0,1,59.52,8a16.94,16.94,0,0,1,1.91-3.64Q63.82,1,65.09,1A1,1,0,0,1,65.77,1.2Zm-1,1.11c0-.08,0-.12-.08-.12s-.69.54-1.49,1.62A26.35,26.35,0,0,0,61.4,6.4a14,14,0,0,0-1,2.43q1-1.14,2.65-3.54A9.17,9.17,0,0,0,64.72,2.31Z"/><path class="cls-4" d="M66.61,11.32a.78.78,0,0,1,0,.35A3,3,0,0,1,65.3,13a3.18,3.18,0,0,1-1.51.5,1.57,1.57,0,0,1-1.1-.43,1.23,1.23,0,0,1-.47-.88,3.15,3.15,0,0,1,.45-1.3c.3-.57.59-1.09.89-1.57A5.45,5.45,0,0,0,64,8.52s-.06-.12-.17-.24-.17-.21-.17-.27A1.53,1.53,0,0,1,64,7.57a6.68,6.68,0,0,1,.82-.72,1.51,1.51,0,0,1,.74-.35.62.62,0,0,1,.46.23.68.68,0,0,1,.2.41,33,33,0,0,1-1.93,3.51l-.13.22a2.66,2.66,0,0,0-.17.27l-.15.27a1.23,1.23,0,0,0-.16.54c0,.19.12.28.37.28a1.48,1.48,0,0,0,.78-.26,3.58,3.58,0,0,0,.69-.56,3.94,3.94,0,0,1,.87-.82C66.54,10.59,66.61,10.83,66.61,11.32Zm1.31-7.08a1.42,1.42,0,0,1-.42.93,1.24,1.24,0,0,1-.9.46.42.42,0,0,1-.47-.48,1.35,1.35,0,0,1,.41-.93,1.23,1.23,0,0,1,.91-.45.48.48,0,0,1,.35.13A.45.45,0,0,1,67.92,4.24Z"/><path class="cls-4" d="M70.25,11.89q0,.36.48.36a1.37,1.37,0,0,0,.66-.26,4.35,4.35,0,0,0,.7-.57,4.91,4.91,0,0,1,1-.83c.14,0,.21.2.21.61a.87.87,0,0,1-.38.83,6.61,6.61,0,0,1-1.79,1.28,2.22,2.22,0,0,1-.79.11,1.39,1.39,0,0,1-.85-.37,1.15,1.15,0,0,1-.42-.89A3.2,3.2,0,0,1,69.3,11a10.06,10.06,0,0,1,.57-1.14c.19-.32.43-.68.71-1.1A2.87,2.87,0,0,0,71,7.94h0c-.18,0-.62.37-1.33,1.05s-1.29,1.29-1.75,1.8a25.59,25.59,0,0,0-1.64,2c-.18.23-.33.35-.44.35a1.48,1.48,0,0,1-.46-.11,1.74,1.74,0,0,1-.35-.16.15.15,0,0,1-.07-.14.6.6,0,0,1,.06-.24,1.38,1.38,0,0,1,.11-.24l.17-.29c.08-.13.25-.4.49-.82l1.1-1.88c.5-.83.8-1.33.9-1.51A6.12,6.12,0,0,1,68.3,7a1.47,1.47,0,0,1,1.23-.47c.13,0,.2.08.2.25A3.58,3.58,0,0,1,69,8.21l-.34.51a7.66,7.66,0,0,1,2.37-2,2.22,2.22,0,0,1,.85-.2.89.89,0,0,1,.6.2.61.61,0,0,1,.22.45,1.41,1.41,0,0,1-.17.59,5.07,5.07,0,0,1-.35.62q-.17.27-.45.69c-.19.27-.3.42-.31.45l-.13.19-.15.23-.16.26a2.94,2.94,0,0,0-.18.3c0,.08-.11.18-.17.3a3.48,3.48,0,0,0-.17.31l-.12.28A1.24,1.24,0,0,0,70.25,11.89Z"/><path class="cls-4" d="M79.77,10.56l0,.17a.1.1,0,0,0,0,.09.15.15,0,0,0,.11,0A.13.13,0,0,0,80,10.8c.8-1.07,1.47-2,2-2.83l1.17-1.79.58-.92a19.07,19.07,0,0,1,1.16-1.6,14.87,14.87,0,0,1-3.43.55,6.84,6.84,0,0,1-1.78-.16A1.59,1.59,0,0,1,79,3.7a.66.66,0,0,1-.17-.41c0-.14,0-.27,0-.4a.87.87,0,0,1,.49-.67A1.67,1.67,0,0,1,80.07,2c.2,0,.3,0,.3.08a.47.47,0,0,1-.13.24c-.09.1-.14.17-.14.21s.63.26,1.88.26a21.86,21.86,0,0,0,4.3-.49,4.13,4.13,0,0,1,2.41-1.14,1,1,0,0,1,.9.38.88.88,0,0,1,.14.46.63.63,0,0,1-.26.45,2.49,2.49,0,0,1-.71.39,10.42,10.42,0,0,1-1.92.46c-.31.4-.74,1-1.31,1.84s-1,1.4-1.15,1.69-.54.81-1,1.56-.85,1.39-1.19,1.93-.69,1.08-1.07,1.61c-.77,1.1-1.46,1.64-2.06,1.64a1.1,1.1,0,0,1-.66-.2.76.76,0,0,1-.28-.66,2.1,2.1,0,0,1,.51-1.15,6.12,6.12,0,0,1,.74-.88c.16-.13.26-.19.32-.19S79.77,10.49,79.77,10.56Z"/><path class="cls-4" d="M90.87,7a.8.8,0,0,1,.5.22.84.84,0,0,1,.26.67A3.13,3.13,0,0,1,91.31,9a8,8,0,0,1-.86,1.46,12.38,12.38,0,0,1-1.22,1.39A6.12,6.12,0,0,1,87.8,13a3,3,0,0,1-1.39.41,1.33,1.33,0,0,1-1-.39,1.53,1.53,0,0,1-.38-1.1,4.22,4.22,0,0,1,.35-1.55,5.57,5.57,0,0,1,.89-1.5,8.7,8.7,0,0,1,1.17-1.18,4,4,0,0,1,2.32-1.06.93.93,0,0,1,.68.22s.08.09.08.13V7ZM90.06,8H90c-.19,0-.29-.14-.29-.41a4.41,4.41,0,0,0-1.24.68,6,6,0,0,0-1.16,1.15,4.12,4.12,0,0,0-1,2.25q0,.45.33.45a2,2,0,0,0,1-.44,5.74,5.74,0,0,0,1.3-1.24,10.66,10.66,0,0,0,1-1.41,2.36,2.36,0,0,0,.32-.81C90.17,8.11,90.13,8,90.06,8Z"/><path class="cls-4" d="M98.32,10.6c.1,0,.17.08.19.23a3.91,3.91,0,0,1,0,.49.92.92,0,0,1-.05.35,3.93,3.93,0,0,1-1,1.1,2.41,2.41,0,0,1-1.51.66,1.36,1.36,0,0,1-.81-.27,1,1,0,0,1-.37-.92A2.61,2.61,0,0,1,95.12,11c-1.34,1.69-2.4,2.53-3.16,2.53a.9.9,0,0,1-.73-.33,1,1,0,0,1-.28-.67,2.53,2.53,0,0,1,.1-.71,5.86,5.86,0,0,1,.2-.66,5.26,5.26,0,0,1,.33-.72c.14-.29.25-.5.32-.63l.33-.59c.16-.26.36-.61.61-1.06a7.75,7.75,0,0,1,.63-1A.67.67,0,0,1,94,6.8a.51.51,0,0,1,.41.2.51.51,0,0,1,.18.31A5.8,5.8,0,0,1,94,8.41a14.63,14.63,0,0,0-1.61,3.38q0,.12.09.12c.26,0,.91-.56,1.94-1.69a14.88,14.88,0,0,0,1.79-2.16,6.25,6.25,0,0,1,.48-.8,2,2,0,0,1,.34-.4,1.71,1.71,0,0,1,.9-.24h.14s.07,0,.11.14a.4.4,0,0,1,.07.2,8.93,8.93,0,0,1-.65,1.21Q97,9.16,97,9.29a8.32,8.32,0,0,0-1,2.58c0,.23.09.34.26.34a2.18,2.18,0,0,0,1.13-.75l.49-.51.29-.31A.23.23,0,0,1,98.32,10.6Z"/><path class="cls-4" d="M100.67,8.72C102,7.27,103,6.55,103.94,6.55a.72.72,0,0,1,.54.2.64.64,0,0,1,.22.51,2.53,2.53,0,0,1-.45,1.06c-.3.5-.58.91-.83,1.25a.57.57,0,0,1-.46.26.48.48,0,0,1-.4-.18.74.74,0,0,1-.14-.44,2.08,2.08,0,0,1,.6-1.27h0c-.18,0-.62.37-1.32,1.05s-1.31,1.3-1.81,1.85-1,1.2-1.61,2c-.16.23-.3.35-.42.35a1.42,1.42,0,0,1-.46-.11,1.74,1.74,0,0,1-.35-.16.18.18,0,0,1-.06-.16.69.69,0,0,1,.06-.26,3.56,3.56,0,0,1,.24-.43c.12-.18.29-.48.53-.89s.6-1,1.1-1.87.79-1.33.89-1.51a7.52,7.52,0,0,1,.5-.77,1.5,1.5,0,0,1,1.24-.47c.13,0,.19.08.19.25A3.44,3.44,0,0,1,101,8.21Z"/><path class="cls-4" d="M104.71,11.52v.13a.47.47,0,0,0,.15.35.43.43,0,0,0,.28.15,4.65,4.65,0,0,0,1.73-.3c.5-.19.75-.39.75-.58s-.09-.17-.27-.24a8.61,8.61,0,0,0-.92-.25l-.94-.24c-.19,0-.35-.11-.46-.15a1.9,1.9,0,0,1-.35-.21.92.92,0,0,1-.38-.8,1.76,1.76,0,0,1,.39-1.05,3.73,3.73,0,0,1,1-.9A8.42,8.42,0,0,1,107,6.78a6.06,6.06,0,0,1,2.27-.56q.9,0,1.11.39a.73.73,0,0,1,.06.3V7a1.09,1.09,0,0,1-.18.67,1.45,1.45,0,0,1-.58.44,1.55,1.55,0,0,1-.62.2.6.6,0,0,1-.29,0,.27.27,0,0,1-.1-.08.23.23,0,0,0-.11-.08s-.06-.05-.06-.12a.32.32,0,0,1,.09-.2.71.71,0,0,0,.11-.21,3.64,3.64,0,0,0-1.12.24,5.48,5.48,0,0,0-1,.5,6.67,6.67,0,0,0-.7.53c-.18.17-.27.29-.27.37s.12.14.37.19a11.13,11.13,0,0,1,2.21.58,1.69,1.69,0,0,1,.73.55,1.06,1.06,0,0,1,.2.56,1.49,1.49,0,0,1-.41,1,3.15,3.15,0,0,1-1,.75,5.25,5.25,0,0,1-2.27.64,2.21,2.21,0,0,1-1.34-.29.87.87,0,0,1-.37-.7,1.42,1.42,0,0,1,.21-.75.61.61,0,0,1,.53-.35C104.61,11.35,104.71,11.41,104.71,11.52Z"/><path class="cls-4" d="M122,8.38c.13,0,.2.1.2.31A7.46,7.46,0,0,1,122,9.77a3.57,3.57,0,0,1-1.17,1.46,7.9,7.9,0,0,1-2.81,1.62,6.16,6.16,0,0,1-1.81.29,2.21,2.21,0,0,1-1.6-.74,2.42,2.42,0,0,1-.73-1.76,6.07,6.07,0,0,1,.41-2.11,9.52,9.52,0,0,1,1.1-2.09,14.35,14.35,0,0,1,1.64-1.91,13.73,13.73,0,0,1,2-1.59,10.7,10.7,0,0,1,2.14-1.07,6.51,6.51,0,0,1,2.13-.39,1.81,1.81,0,0,1,1.35.57,1.08,1.08,0,0,1,.29.78A2.34,2.34,0,0,1,124.5,4a6.38,6.38,0,0,1-1.08,1.3,7.72,7.72,0,0,1-1.28,1,2.2,2.2,0,0,1-1.06.4,1,1,0,0,1-.68-.25.64.64,0,0,1-.28-.44,1.46,1.46,0,0,1,.08-.43c.06-.15.13-.23.22-.23a.11.11,0,0,0,0,.08c0,.06.09.1.28.1a2,2,0,0,0,.93-.5,7.39,7.39,0,0,0,1.19-1.11,1.72,1.72,0,0,0,.53-.93c0-.14-.09-.21-.28-.21a5.05,5.05,0,0,0-2.11.71,12.84,12.84,0,0,0-2.56,1.83A11.22,11.22,0,0,0,116.24,8a5.52,5.52,0,0,0-.91,2.76,1.19,1.19,0,0,0,.27.82,1.06,1.06,0,0,0,.84.31,3.44,3.44,0,0,0,1.33-.33,8,8,0,0,0,1.47-.79c.46-.31.9-.64,1.31-1a10.79,10.79,0,0,0,1-.86c.25-.25.38-.4.38-.45S121.94,8.38,122,8.38Z"/><path class="cls-4" d="M128,6.93a.75.75,0,0,1,.5.22.83.83,0,0,1,.26.67A3.09,3.09,0,0,1,128.48,9a7.29,7.29,0,0,1-.87,1.46,11.46,11.46,0,0,1-1.21,1.4A6.59,6.59,0,0,1,125,12.91a2.93,2.93,0,0,1-1.39.42,1.3,1.3,0,0,1-1-.4,1.5,1.5,0,0,1-.38-1.09,4.14,4.14,0,0,1,.35-1.55,5.52,5.52,0,0,1,.89-1.51,8.62,8.62,0,0,1,1.17-1.17,3.94,3.94,0,0,1,2.32-1.06,1,1,0,0,1,.68.21.24.24,0,0,1,.08.13v.05ZM127.22,8h0c-.19,0-.29-.14-.29-.42a4.68,4.68,0,0,0-1.24.68,6.07,6.07,0,0,0-1.16,1.16,4.06,4.06,0,0,0-1,2.24c0,.31.11.46.33.46a2.16,2.16,0,0,0,1-.44,5.8,5.8,0,0,0,1.3-1.25A10.33,10.33,0,0,0,127,9a2.36,2.36,0,0,0,.32-.81Q127.34,8,127.22,8Z"/><path class="cls-4" d="M132.36,7.92c-1.76.11-2.78.2-3.07.26h0c-.11,0-.16-.07-.16-.21a1.09,1.09,0,0,1,.25-.58,1.22,1.22,0,0,1,.63-.48,3,3,0,0,1,.82-.12A24.18,24.18,0,0,0,134,6.56a1.15,1.15,0,0,0,.23-.08,1.18,1.18,0,0,1,.38-.08.38.38,0,0,1,.3.18A.68.68,0,0,1,135,7a.54.54,0,0,1-.15.42,1.18,1.18,0,0,1-.53.26A18.92,18.92,0,0,0,129.92,12c.18-.05.63-.14,1.36-.28a10.48,10.48,0,0,0,3.12-.81.29.29,0,0,1,.19-.08.37.37,0,0,1,.22.08c.08.05.12.28.12.7a1.06,1.06,0,0,1-.55.8,19.8,19.8,0,0,1-2.34.46c-1.9.33-2.92.5-3.08.5h-.31l-.11,0-.09,0-.07,0-.06,0,0,0-.11-.09a.73.73,0,0,1-.09-.43,1.36,1.36,0,0,1,0-.41,7.69,7.69,0,0,1,1-1.45,10.76,10.76,0,0,1,1.09-1.12c.32-.28.72-.61,1.19-1S132.2,8.07,132.36,7.92Z"/><path class="cls-4" d="M141.45,10.56c.11,0,.17.08.19.24a3.75,3.75,0,0,1,0,.48.73.73,0,0,1,0,.35,3.93,3.93,0,0,1-1,1.11,2.45,2.45,0,0,1-1.5.65,1.43,1.43,0,0,1-.82-.26,1.07,1.07,0,0,1-.37-.92,2.66,2.66,0,0,1,.35-1.29c-1.34,1.68-2.39,2.52-3.16,2.52a.94.94,0,0,1-.73-.32,1,1,0,0,1-.28-.67,2.66,2.66,0,0,1,.1-.72c.06-.24.13-.46.2-.66s.19-.43.33-.72.25-.49.32-.62.18-.33.34-.59l.6-1.06a10.65,10.65,0,0,1,.63-1,.65.65,0,0,1,.48-.32.55.55,0,0,1,.42.19.56.56,0,0,1,.17.32,5.9,5.9,0,0,1-.54,1.09,14.84,14.84,0,0,0-1.61,3.38c0,.09,0,.13.09.13.26,0,.91-.57,1.94-1.69A17.52,17.52,0,0,0,139.35,8a6.06,6.06,0,0,1,.47-.8,1.75,1.75,0,0,1,.34-.4,1.76,1.76,0,0,1,.9-.24h.14s.07.06.12.14a.57.57,0,0,1,.06.21,9.85,9.85,0,0,1-.64,1.2c-.38.66-.6,1-.64,1.12a8.15,8.15,0,0,0-1,2.58c0,.22.09.34.26.34a2.3,2.3,0,0,0,1.14-.76l.48-.51.3-.3A.19.19,0,0,1,141.45,10.56Z"/><path class="cls-4" d="M141.15,13.16l-.39,0h-.15a.62.62,0,0,1-.17-.1l-.15-.1s0-.06,0-.12a1.37,1.37,0,0,1,.06-.3A34.41,34.41,0,0,1,143.37,7a1,1,0,0,1,.52-.35,2.54,2.54,0,0,1,.7-.11c.14,0,.21.1.21.31a.75.75,0,0,1-.07.24,2.52,2.52,0,0,1-.32.49c-.18.23-.38.49-.62.78l-.41.51a12,12,0,0,1,2-1.72,2.93,2.93,0,0,1,1.3-.56.79.79,0,0,1,.62.23.72.72,0,0,1,.21.49,2.68,2.68,0,0,1,0,.44,1.34,1.34,0,0,1-.14.36l-.16.33a3.78,3.78,0,0,1-.24.35l-.22.29a3.68,3.68,0,0,1-.25.31l-.21.25.64-.67.68-.75c.19-.2.42-.42.7-.67a7.27,7.27,0,0,1,.79-.62,3.37,3.37,0,0,1,1.78-.55.77.77,0,0,1,.52.2.6.6,0,0,1,.21.46,3.75,3.75,0,0,1-.66,1.3c-.44.69-.88,1.37-1.31,2.06a3.9,3.9,0,0,0-.65,1.3c0,.25,0,.4.13.45a.74.74,0,0,0,.34.05,1.36,1.36,0,0,0,.54-.25,4.75,4.75,0,0,0,.63-.49c.3-.27.58-.53.83-.79a.29.29,0,0,1,.18-.07c.1,0,.16.08.19.24a3.75,3.75,0,0,1,0,.48.88.88,0,0,1-.05.35,3.87,3.87,0,0,1-1,1.11,2.46,2.46,0,0,1-1.54.66h-.13a1.65,1.65,0,0,1-1.16-.46,1.35,1.35,0,0,1-.32-.89,3,3,0,0,1,.36-1.26,9,9,0,0,1,.77-1.34q.42-.6.78-1.08a4.48,4.48,0,0,0,.35-.52s0,0-.07,0-.54.27-1.12.81a29.7,29.7,0,0,0-2.56,2.67c-.19.23-.64.81-1.35,1.73a.44.44,0,0,1-.38.16,1.56,1.56,0,0,1-.55-.1c-.19-.07-.28-.15-.28-.26s.43-.81,1.29-2.28a16,16,0,0,0,1.29-2.39c0-.13-.08-.2-.24-.2s-.49.24-1,.71a17.86,17.86,0,0,0-3.18,3.91c-.05.07-.14.19-.28.35S141.2,13.16,141.15,13.16Z"/><path class="cls-4" d="M156.84,7a1.24,1.24,0,0,1-.43.94,1.42,1.42,0,0,1-1,.41.25.25,0,0,1-.23-.09.36.36,0,0,1-.06-.22,1.24,1.24,0,0,1,0-.27,4.45,4.45,0,0,0-.64.3,8.74,8.74,0,0,0-.88.6c-.35.27-.52.46-.52.59s.06.07.19.07a2.45,2.45,0,0,0,.59-.13,2.14,2.14,0,0,1,.55-.14.78.78,0,0,1,.21,0,.76.76,0,0,1,.23.24.65.65,0,0,1,.12.3c0,.08-.07.17-.21.29a1.42,1.42,0,0,1-.48.27,2.6,2.6,0,0,0-.36.15c-1.14.63-1.71,1.07-1.71,1.31q0,.63,1.08.63a2.62,2.62,0,0,0,1.39-.43,12.16,12.16,0,0,0,1.06-.76l.6-.48a.41.41,0,0,1,.2-.09c.14,0,.21.16.21.47a2,2,0,0,1-.06.62,1.09,1.09,0,0,1-.32.37,5.35,5.35,0,0,1-3.29,1.41,3.24,3.24,0,0,1-1.32-.22,1.35,1.35,0,0,1-.91-1.27c0-.74.52-1.31,1.55-1.69a.72.72,0,0,1-.4-.36,1.9,1.9,0,0,1-.09-.69,1.63,1.63,0,0,1,.44-1,3.44,3.44,0,0,1,1.09-.87A5.41,5.41,0,0,1,156,6.55a1.26,1.26,0,0,1,.55.13A.39.39,0,0,1,156.84,7Z"/><path class="cls-4" d="M164,1.16a.85.85,0,0,1,.29.69,3.67,3.67,0,0,1-.5,1.42,17.86,17.86,0,0,1-1.21,2c-.47.68-1,1.39-1.6,2.15-.94,1.2-1.84,2.28-2.71,3.23a2.38,2.38,0,0,1-.07.37,2.33,2.33,0,0,0-.06.53.62.62,0,0,0,.25.48.9.9,0,0,0,.61.21,1.39,1.39,0,0,0,.78-.26,3.55,3.55,0,0,0,.73-.57c.54-.56.88-.84,1-.84s.19.2.19.6v.16a.8.8,0,0,1-.11.46A4.62,4.62,0,0,1,160,13a3.71,3.71,0,0,1-1.61.4,1.44,1.44,0,0,1-1.16-.46,1.94,1.94,0,0,1-.4-1.28A10.51,10.51,0,0,1,157.69,8a17.66,17.66,0,0,1,1.91-3.64Q162,.93,163.26.93A1.12,1.12,0,0,1,164,1.16Zm-1.06,1.12c0-.08,0-.12-.08-.12s-.68.54-1.49,1.62a25.77,25.77,0,0,0-1.75,2.59,13.87,13.87,0,0,0-1,2.42c.64-.75,1.53-1.93,2.65-3.54A9.07,9.07,0,0,0,162.89,2.28Z"/></g></g></svg>